<svg width="123" height="100" viewBox="0 0 123 100" fill="none" xmlns="http://www.w3.org/2000/svg">
<g opacity="0.7">
<g opacity="0.24" filter="url(#filter0_f)">
<ellipse cx="77.4368" cy="44.9349" rx="17.0632" ry="16.8467" fill="#FF7EFA" fill-opacity="0.98"/>
</g>
<path d="M47.8475 96.0547L65.1951 85.9093V65.9843L47.8475 76.4378V96.0547Z" fill="url(#paint0_linear)"/>
<path d="M47.8583 96.2085L31.2764 86.8361V66.2713L47.8583 76.6099V96.2085Z" fill="url(#paint1_linear)"/>
<path opacity="0.4" d="M45.2303 91.4638L33.9045 85.0623V71.016L45.2303 78.0775V91.4638Z" stroke="url(#paint2_linear)" stroke-width="0.864"/>
<path opacity="0.405357" d="M48.1986 71.1398L39.6759 66.2633L4.5 3.99976H49.67L55.5037 66.2633L48.1986 71.1398Z" fill="url(#paint3_linear)"/>
<path opacity="0.405357" d="M55.5036 66.3265L72.5489 8.56653H39.6759L51.8511 73.5465L55.5036 66.3265Z" fill="url(#paint4_linear)"/>
<path d="M64.1912 42.2646C66.2299 40.935 67.6654 40.7903 68.5404 41.4066L69.9217 42.1281L69.5979 42.5937C70.6541 45.7469 67.928 52.9367 62.2063 56.3547C61.0017 57.0742 60.0127 57.4355 59.224 57.5092L58.9242 57.9402L57.928 57.3037C54.9068 55.7578 57.7649 46.4557 64.1912 42.2646Z" fill="#D7911D"/>
<path d="M65.8538 42.9453C57.4877 48.4239 54.7276 62.5338 63.6168 57.2019C72.506 51.8699 74.22 37.4668 65.8538 42.9453Z" fill="url(#paint5_linear)"/>
<path opacity="0.4" d="M65.4067 45.1099C59.416 49.1614 57.5579 59.289 63.9231 55.346C70.2883 51.403 71.3974 41.0585 65.4067 45.1099Z" stroke="#D7911D" stroke-width="0.5"/>
<path d="M22.3438 39.3824C19.9406 39.7678 18.5704 39.3162 18.0217 38.3973L17.0533 37.1762L17.5385 36.8826C17.8561 33.5725 23.2708 28.1131 29.8881 27.3178C31.2812 27.1504 32.3317 27.2226 33.0822 27.4761L33.5313 27.2043L34.1825 28.1909C36.3137 30.8321 29.9192 38.1674 22.3438 39.3824Z" fill="#D7911D"/>
<path d="M21.1018 38.0843C30.973 36.4823 39.2335 24.7149 28.9441 25.9703C18.6547 27.2256 11.2306 39.6864 21.1018 38.0843Z" fill="url(#paint6_linear)"/>
<path opacity="0.4" d="M22.3906 36.2887C29.5113 35.0242 35.328 26.5279 27.9093 27.541C20.4906 28.5542 15.2699 37.5532 22.3906 36.2887Z" stroke="#D7911D" stroke-width="0.5"/>
<path d="M59.2093 22.4183C59.2022 20.7542 59.6655 19.9103 60.3647 19.6878L61.3198 19.2324L61.4714 19.6021C63.7407 20.3315 66.9518 24.7986 66.786 29.3391C66.7512 30.295 66.5867 30.9848 66.3287 31.446L66.469 31.7882L65.7116 32.0686C63.6417 33.0781 59.2314 27.6639 59.2093 22.4183Z" fill="#D7911D"/>
<path d="M60.1737 21.8981C60.2158 28.7364 67.508 36.0887 67.7526 29.0255C67.9973 21.9624 60.1317 15.0599 60.1737 21.8981Z" fill="url(#paint7_linear)"/>
<path opacity="0.3" d="M61.0123 22.6923C61.045 28.0089 66.7145 33.7251 66.9047 28.2337C67.0949 22.7423 60.9796 17.3758 61.0123 22.6923Z" stroke="#D7911D" stroke-width="0.5"/>
<path d="M31.2764 66.4292L48.3051 57.0862L64.9381 66.1422L47.8754 76.5525L31.2764 66.4292Z" fill="url(#paint8_linear)"/>
<path d="M39.7073 66.6498L48.2374 61.9658L56.5692 66.5059L48.0221 71.725L39.7073 66.6498Z" fill="url(#paint9_linear)"/>
<g opacity="0.405357" filter="url(#filter1_f)">
<ellipse cx="63.5467" cy="82.1443" rx="10.9021" ry="10.7638" fill="#FFC37E" fill-opacity="0.98"/>
</g>
<g opacity="0.405357" filter="url(#filter2_f)">
<ellipse cx="28.1205" cy="69.3348" rx="10.3598" ry="10.2283" fill="#FF7E95" fill-opacity="0.98"/>
</g>
<path d="M48.4289 66.2713V50.7078L55.2946 45.4098C55.5066 45.2463 55.6308 44.9936 55.6308 44.7258V34.6976" stroke="url(#paint10_linear)" stroke-width="0.864"/>
<path d="M48.404 50.656V44.0181C48.404 43.5409 48.0172 43.1541 47.54 43.1541H42.3239V34.9846" stroke="url(#paint11_linear)" stroke-width="0.864"/>
<ellipse cx="42.4693" cy="35.1282" rx="1.30825" ry="1.29165" fill="url(#paint12_linear)"/>
<ellipse cx="55.5518" cy="35.1282" rx="1.30825" ry="1.29165" fill="url(#paint13_linear)"/>
<ellipse cx="48.5743" cy="50.341" rx="1.30825" ry="1.29165" fill="url(#paint14_linear)"/>
<path d="M30.2222 46.0648C31.1945 44.1746 32.2202 43.4589 33.1491 43.5704L34.5071 43.551L34.4623 44.049C36.6217 46.0566 37.6537 52.7916 34.7896 57.853C34.1866 58.9185 33.5926 59.615 33.0265 60.0036L32.985 60.4647L31.9556 60.3884C28.9993 60.456 27.1571 52.0233 30.2222 46.0648Z" fill="#D7911D"/>
<path d="M31.6289 45.9769C27.6482 53.7513 31.6366 65.8806 36.0769 58.0004C40.5172 50.1202 35.6095 38.2024 31.6289 45.9769Z" fill="url(#paint15_linear)"/>
<path opacity="0.4" d="M32.2001 47.5385C29.2545 53.2916 32.2059 62.2673 35.4917 56.4359C38.7775 50.6046 35.1458 41.7854 32.2001 47.5385Z" stroke="#D7911D" stroke-width="0.5"/>
<path opacity="0.2" fill-rule="evenodd" clip-rule="evenodd" d="M37.6809 53.1259C34.9624 54.4397 32.6706 56.6114 31.0578 58.8801C32.1827 61.0639 34.0495 61.448 36.0356 57.9743C36.9077 56.4488 37.432 54.7762 37.6809 53.1259Z" fill="black"/>
</g>
<defs>
<filter id="filter0_f" x="32.3736" y="0.0882263" width="90.1264" height="89.6933" filterUnits="userSpaceOnUse" color-interpolation-filters="sRGB">
<feFlood flood-opacity="0" result="BackgroundImageFix"/>
<feBlend mode="normal" in="SourceGraphic" in2="BackgroundImageFix" result="shape"/>
<feGaussianBlur stdDeviation="14" result="effect1_foregroundBlur"/>
</filter>
<filter id="filter1_f" x="45.6446" y="64.3805" width="35.8042" height="35.5275" filterUnits="userSpaceOnUse" color-interpolation-filters="sRGB">
<feFlood flood-opacity="0" result="BackgroundImageFix"/>
<feBlend mode="normal" in="SourceGraphic" in2="BackgroundImageFix" result="shape"/>
<feGaussianBlur stdDeviation="3.5" result="effect1_foregroundBlur"/>
</filter>
<filter id="filter2_f" x="0.760712" y="42.1065" width="54.7196" height="54.4567" filterUnits="userSpaceOnUse" color-interpolation-filters="sRGB">
<feFlood flood-opacity="0" result="BackgroundImageFix"/>
<feBlend mode="normal" in="SourceGraphic" in2="BackgroundImageFix" result="shape"/>
<feGaussianBlur stdDeviation="8.5" result="effect1_foregroundBlur"/>
</filter>
<linearGradient id="paint0_linear" x1="58.0856" y1="31.0108" x2="3.62863" y2="50.085" gradientUnits="userSpaceOnUse">
<stop stop-color="#EDB64F"/>
<stop offset="1" stop-color="#DD26BC"/>
</linearGradient>
<linearGradient id="paint1_linear" x1="56.2968" y1="81.3676" x2="23.4887" y2="61.5601" gradientUnits="userSpaceOnUse">
<stop stop-color="#6B1B98"/>
<stop offset="1" stop-color="#DE0F62"/>
</linearGradient>
<linearGradient id="paint2_linear" x1="32.6084" y1="65.904" x2="18.6346" y2="84.9268" gradientUnits="userSpaceOnUse">
<stop stop-color="#FFD599"/>
<stop offset="0.482372" stop-color="#D178A0"/>
<stop offset="1" stop-color="#FFCE08"/>
</linearGradient>
<linearGradient id="paint3_linear" x1="17.3255" y1="11.1608" x2="17.3255" y2="99.1296" gradientUnits="userSpaceOnUse">
<stop stop-color="#FDF27D" stop-opacity="0.01"/>
<stop offset="0.4936" stop-color="#FCF17B" stop-opacity="0.240234"/>
<stop offset="1" stop-color="#FBF079"/>
</linearGradient>
<linearGradient id="paint4_linear" x1="33.3674" y1="15.8389" x2="33.3674" y2="78.9098" gradientUnits="userSpaceOnUse">
<stop stop-color="#FDF27D" stop-opacity="0.01"/>
<stop offset="0.4936" stop-color="#FCF17B" stop-opacity="0.240234"/>
<stop offset="1" stop-color="#FBF079"/>
</linearGradient>
<linearGradient id="paint5_linear" x1="56.1095" y1="38.79" x2="48.9735" y2="59.7172" gradientUnits="userSpaceOnUse">
<stop stop-color="#FFF585"/>
<stop offset="1" stop-color="#DCC613"/>
</linearGradient>
<linearGradient id="paint6_linear" x1="28.3136" y1="45.8438" x2="43.3445" y2="29.6283" gradientUnits="userSpaceOnUse">
<stop stop-color="#FFF585"/>
<stop offset="1" stop-color="#DCC613"/>
</linearGradient>
<linearGradient id="paint7_linear" x1="53.9894" y1="25.4982" x2="63.0046" y2="38.5056" gradientUnits="userSpaceOnUse">
<stop stop-color="#FFF585"/>
<stop offset="1" stop-color="#DCC613"/>
</linearGradient>
<linearGradient id="paint8_linear" x1="59.9528" y1="44.0764" x2="26.5658" y2="81.9435" gradientUnits="userSpaceOnUse">
<stop stop-color="#EDB64F"/>
<stop offset="0.977895" stop-color="#E64082"/>
</linearGradient>
<linearGradient id="paint9_linear" x1="53.2194" y1="60.9006" x2="32.6766" y2="60.9006" gradientUnits="userSpaceOnUse">
<stop stop-color="#FFD066"/>
<stop offset="1" stop-color="#CE1D64"/>
</linearGradient>
<linearGradient id="paint10_linear" x1="47.6048" y1="26.8042" x2="28.3148" y2="37.6182" gradientUnits="userSpaceOnUse">
<stop stop-color="#FFD599"/>
<stop offset="0.482372" stop-color="#D178A0"/>
<stop offset="1" stop-color="#FFE26F"/>
</linearGradient>
<linearGradient id="paint11_linear" x1="38.9534" y1="32.8895" x2="29.0383" y2="63.2271" gradientUnits="userSpaceOnUse">
<stop stop-color="#FFD599"/>
<stop offset="1" stop-color="#A014A8"/>
</linearGradient>
<linearGradient id="paint12_linear" x1="47.3888" y1="38.6506" x2="44.8308" y2="31.4988" gradientUnits="userSpaceOnUse">
<stop stop-color="#FFFCF5"/>
<stop offset="1" stop-color="#FFEFAD"/>
</linearGradient>
<linearGradient id="paint13_linear" x1="60.4713" y1="38.6506" x2="57.9133" y2="31.4988" gradientUnits="userSpaceOnUse">
<stop stop-color="#FFFCF5"/>
<stop offset="1" stop-color="#FFEFAD"/>
</linearGradient>
<linearGradient id="paint14_linear" x1="53.4938" y1="53.8634" x2="50.9358" y2="46.7116" gradientUnits="userSpaceOnUse">
<stop stop-color="#FFFCF5"/>
<stop offset="1" stop-color="#FFEFAD"/>
</linearGradient>
<linearGradient id="paint15_linear" x1="22.4519" y1="46.8406" x2="25.7624" y2="66.1598" gradientUnits="userSpaceOnUse">
<stop stop-color="#FFF585"/>
<stop offset="1" stop-color="#DCC613"/>
</linearGradient>
</defs>
</svg>
