<svg width="31" height="31" viewBox="0 0 31 31" fill="none" xmlns="http://www.w3.org/2000/svg">
<path d="M15.8193 0.846802C7.54836 0.846802 0.819336 7.57572 0.819336 15.8467C0.819336 24.1177 7.54836 30.8468 15.8193 30.8468C24.0903 30.8468 30.8193 24.1177 30.8193 15.8467C30.8193 7.57572 24.0904 0.846802 15.8193 0.846802ZM15.8193 29.1143C8.50365 29.1143 2.55184 23.1624 2.55184 15.8467C2.55184 8.53107 8.50365 2.5793 15.8193 2.5793C23.135 2.5793 29.0868 8.53107 29.0868 15.8467C29.0868 23.1625 23.135 29.1143 15.8193 29.1143Z" fill="white"/>
<path d="M24.0777 7.9416C23.8511 7.52008 23.3259 7.36229 22.9045 7.58881L13.1546 12.8314C13.005 12.9118 12.8823 13.0345 12.8019 13.1842L7.56141 22.9319C7.37602 23.2768 7.44823 23.6912 7.71156 23.9545C7.76994 24.013 7.83774 24.0639 7.91435 24.105C8.1748 24.245 8.47494 24.2378 8.71965 24.1126L8.7198 24.1128L8.72347 24.1108C8.727 24.109 8.73048 24.107 8.73396 24.1052L18.4886 18.8665C18.6383 18.7861 18.761 18.6634 18.8416 18.5137L24.061 8.79008C24.0724 8.77043 24.0833 8.75057 24.0931 8.73018L24.1002 8.71709L24.0993 8.7168C24.2102 8.47773 24.212 8.19155 24.0777 7.9416ZM10.447 21.2235L13.777 15.0293L16.6406 17.893L10.447 21.2235ZM17.8664 16.6686L15.0026 13.8048L21.1963 10.4744" fill="white"/>
</svg>
