<svg width="36" height="37" viewBox="0 0 36 37" fill="none" xmlns="http://www.w3.org/2000/svg">
<g clip-path="url(#clip0)">
<path d="M36 25.3108C36 20.0634 32.4643 15.4789 27.4785 14.0973C27.1651 6.79333 21.1259 0.94751 13.7461 0.94751C6.16635 0.94751 0 7.11386 0 14.6936C0 17.1639 0.657532 19.5691 1.90613 21.6806L0.0505371 28.3889L6.75906 26.5336C8.70007 27.6814 10.8896 28.3279 13.1495 28.4254C14.5308 33.4116 19.1157 36.9475 24.3633 36.9475C26.4578 36.9475 28.4947 36.3897 30.2844 35.3298L35.9492 36.8967L34.3823 31.2319C35.4422 29.4422 36 27.4053 36 25.3108ZM7.09195 24.2528L3.0759 25.3638L4.18689 21.3477L3.93365 20.9517C2.74026 19.0846 2.10938 16.9205 2.10938 14.6936C2.10938 8.27704 7.32953 3.05688 13.7461 3.05688C20.1627 3.05688 25.3828 8.27704 25.3828 14.6936C25.3828 21.1102 20.1627 26.3303 13.7461 26.3303C11.5192 26.3303 9.35541 25.6994 7.48801 24.506L7.09195 24.2528ZM32.9241 33.8716L29.9441 33.0471L29.5461 33.3061C28.0033 34.3083 26.2109 34.8381 24.3633 34.8381C20.239 34.8381 16.6149 32.1715 15.3309 28.3477C21.6464 27.6196 26.6721 22.5939 27.4005 16.2781C31.224 17.5624 33.8906 21.1865 33.8906 25.3108C33.8906 27.1584 33.3608 28.9508 32.3586 30.4936L32.0996 30.8916L32.9241 33.8716Z" fill="white"/>
<path d="M12.6914 20.0022H14.8008V22.1116H12.6914V20.0022Z" fill="white"/>
<path d="M15.8555 11.4944C15.8555 12.0934 15.6116 12.6463 15.1688 13.0514L12.6914 15.319V17.8928H14.8008V16.2479L16.5929 14.6076C17.4647 13.8098 17.9648 12.6751 17.9648 11.4944C17.9648 9.16803 16.0724 7.27563 13.7461 7.27563C11.4197 7.27563 9.52734 9.16803 9.52734 11.4944H11.6367C11.6367 10.3312 12.5829 9.38501 13.7461 9.38501C14.9093 9.38501 15.8555 10.3312 15.8555 11.4944Z" fill="white"/>
</g>
<defs>
<clipPath id="clip0">
<rect width="36" height="36" fill="white" transform="translate(0 0.94751)"/>
</clipPath>
</defs>
</svg>
