<svg width="24" height="24" viewBox="0 0 24 24" fill="none" xmlns="http://www.w3.org/2000/svg">
<path d="M12 23.2087C5.64873 23.2087 0.5 18.06 0.5 11.7087C0.5 5.35744 5.64873 0.20871 12 0.20871C18.3513 0.20871 23.5 5.35744 23.5 11.7087C23.493 18.0571 18.3484 23.2017 12 23.2087ZM2.8 11.9065C2.85441 16.9679 6.98727 21.0347 12.0489 21.0076C17.1106 20.9803 21.1995 16.8693 21.1995 11.8076C21.1995 6.74589 17.1106 2.63495 12.0489 2.60761C6.98727 2.58054 2.85441 6.64728 2.8 11.7087V11.9065ZM14.3 17.4587H10.85V12.8587H9.7V10.5587H13.15V15.1587H14.3V17.4587ZM13.15 8.25871H10.85V5.95871H13.15V8.25871Z" fill="white"/>
</svg>
