<svg width="36" height="37" viewBox="0 0 36 37" fill="none" xmlns="http://www.w3.org/2000/svg">
<g clip-path="url(#clip0)">
<path d="M31.5477 9.31594L30.8019 10.0618C30.1925 10.6712 29.3822 11.0068 28.5203 11.0068C27.6584 11.0068 26.8483 10.6712 26.2388 10.0618C25.6294 9.45241 25.2938 8.64213 25.2938 7.78031C25.2938 6.91849 25.6294 6.10821 26.2388 5.49874L26.9847 4.75287L22.5323 0.300537L0 22.8328L4.45233 27.2851L5.1982 26.5393C5.8076 25.9299 6.61788 25.5943 7.47977 25.5943C8.34166 25.5943 9.1518 25.9299 9.76127 26.5393C10.3707 27.1487 10.7063 27.9589 10.7063 28.8208C10.7063 29.6826 10.3707 30.4929 9.76127 31.1023L9.0154 31.8482L13.4677 36.3005L36 13.7683L31.5477 9.31594ZM11.9257 31.7749C12.5049 30.9071 12.816 29.8878 12.816 28.8208C12.816 27.3954 12.261 26.0554 11.253 25.0475C10.2452 24.0396 8.90508 23.4845 7.47977 23.4845C6.41271 23.4845 5.39346 23.7957 4.52559 24.3748L2.9835 22.8328L22.5323 3.28404L24.0743 4.82613C23.4951 5.694 23.184 6.71325 23.184 7.78031C23.184 9.20569 23.739 10.5457 24.747 11.5536C25.7548 12.5615 27.0949 13.1165 28.5202 13.1165C29.5873 13.1165 30.6065 12.8054 31.4744 12.2262L33.0165 13.7683L13.4677 33.317L11.9257 31.7749Z" fill="white"/>
<path d="M21.0203 13.7825L19.5286 15.2743L21.0263 16.772L22.518 15.2803L21.0203 13.7825Z" fill="white"/>
<path d="M18.0254 10.7862L16.5337 12.2779L18.0314 13.7756L19.5231 12.2839L18.0254 10.7862Z" fill="white"/>
<path d="M24.0162 16.7779L22.5244 18.2697L24.0221 19.7674L25.5139 18.2756L24.0162 16.7779Z" fill="white"/>
</g>
<defs>
<clipPath id="clip0">
<rect width="36" height="36" fill="white" transform="translate(0 0.300537)"/>
</clipPath>
</defs>
</svg>
