<svg width="64" height="50" viewBox="0 0 64 50" fill="none" xmlns="http://www.w3.org/2000/svg">
<path d="M59.0435 15.3623C60.1988 15.4809 61.3406 15.7064 62.4545 16.0361C62.9697 16.1928 63.4848 16.3573 64 16.5062C63.9595 16.5309 63.9143 16.5471 63.8674 16.5538C63.8204 16.5606 63.7726 16.5577 63.7268 16.5454C62.6164 16.3304 61.4821 16.2671 60.3548 16.3573C59.854 16.3861 59.3671 16.5338 58.9343 16.7882C58.7798 16.8404 58.6426 16.9342 58.5376 17.0594C58.4326 17.1845 58.3638 17.3362 58.3389 17.4979C58.3139 17.6596 58.3337 17.825 58.396 17.9762C58.4583 18.1274 58.5608 18.2585 58.6923 18.3552C59.2225 18.9111 59.8495 19.3651 60.5422 19.695C61.2056 20.0554 61.8925 20.3609 62.5716 20.7135C62.2282 20.6743 61.8847 20.6351 61.5413 20.5803C60.2673 20.357 58.9783 20.2312 57.6854 20.2042C57.2663 20.2105 56.8566 20.3295 56.499 20.5489C56.3176 20.6525 56.1599 20.7932 56.036 20.9618C55.9122 21.1304 55.8251 21.3232 55.7802 21.5278C55.7353 21.7324 55.7337 21.9441 55.7755 22.1494C55.8173 22.3546 55.9016 22.5487 56.0228 22.7192C56.435 23.3103 57.0101 23.7677 57.6776 24.0354C59.0448 24.651 60.444 25.1923 61.8691 25.6572H61.4866C60.2534 25.5397 59.0123 25.4457 57.7712 25.4457C57.2742 25.4608 56.7822 25.5506 56.3116 25.7121C56.0526 25.7734 55.8134 25.9001 55.6169 26.0803C55.5385 26.1466 55.4738 26.2278 55.4266 26.3193C55.3794 26.4107 55.3507 26.5106 55.342 26.6132C55.3333 26.7158 55.3448 26.8191 55.3759 26.9172C55.407 27.0153 55.4571 27.1063 55.5233 27.185C55.88 27.6697 56.3561 28.0531 56.9048 28.2976C58.2042 28.9334 59.5415 29.4881 60.909 29.9586L60.9092 29.9586C61.1511 30.0448 61.393 30.1309 61.6271 30.2328C61.2915 30.1858 60.9793 30.2093 60.511 30.1309C60.0426 30.0526 59.5743 30.0291 59.106 29.9742C58.4884 29.8829 57.8648 29.8383 57.2405 29.841C56.9704 29.8569 56.7057 29.9233 56.4599 30.0369C56.3655 30.0672 56.281 30.1224 56.215 30.1967C56.1491 30.271 56.1043 30.3617 56.0851 30.4593C56.066 30.5569 56.0733 30.6579 56.1063 30.7517C56.1392 30.8456 56.1967 30.9288 56.2726 30.9927C56.6088 31.3348 57.0131 31.6017 57.459 31.7762C58.3394 32.2031 59.2499 32.5645 60.1831 32.8574C60.2222 32.8653 60.2768 32.9201 60.2768 32.9201C59.6026 32.8513 58.9328 32.7441 58.2708 32.5989L58.2707 32.5989C57.6073 32.4814 56.9438 32.3638 56.2804 32.2228C55.7116 32.0545 55.1089 32.0383 54.532 32.1758C54.4372 32.1978 54.3486 32.241 54.2728 32.302C54.1969 32.3631 54.1357 32.4405 54.0937 32.5286C54.0517 32.6166 54.03 32.7131 54.0302 32.8107C54.0304 32.9083 54.0525 33.0046 54.0949 33.0925C54.3139 33.442 54.6173 33.7304 54.9769 33.9308C55.9187 34.5152 56.9312 34.976 57.9898 35.3019C58.0863 35.3317 58.1545 35.4181 58.2482 35.4266C58.2531 35.4268 58.258 35.427 58.263 35.4272C58.258 35.4272 58.253 35.427 58.2482 35.4266C57.3791 35.387 56.5253 35.2937 55.6716 35.2235C54.7714 35.0512 53.8617 34.9335 52.9475 34.871C52.7411 34.8677 52.5419 34.9466 52.3933 35.0904C52.1669 35.2862 52.2059 35.5918 52.4948 35.8738C52.8666 36.2007 53.299 36.4509 53.767 36.6103C54.5476 36.8924 55.3281 37.1509 56.1087 37.3938H55.0784C54.1064 37.3206 53.1471 37.1286 52.2216 36.8218C52.0108 36.7435 51.8001 36.6887 51.5971 36.5946C51.2177 36.4812 50.8135 36.4812 50.4341 36.5946C49.9424 36.6495 49.4662 36.7827 48.9745 36.8689C48.8262 36.8924 48.8262 37.0256 48.8262 37.0647V37.1666C48.912 37.621 48.8886 37.8482 49.5443 37.7385C50.4296 37.6374 51.3263 37.7315 52.1716 38.0143C53.0169 38.2971 53.7905 38.7619 54.4383 39.376C54.7376 39.6635 54.9714 40.0127 55.1237 40.3995C55.2759 40.7862 55.343 41.2015 55.3203 41.6168C55.2743 42.0032 55.1168 42.3678 54.8672 42.6656C54.6176 42.9635 54.2868 43.1817 53.9153 43.2934C53.5779 43.3905 53.2237 43.4141 52.8764 43.3628C52.5291 43.3114 52.1968 43.1863 51.9015 42.9957C51.7303 42.9129 51.5874 42.781 51.4909 42.6166C51.3945 42.4522 51.3488 42.2628 51.3597 42.0724C51.3705 41.8819 51.4375 41.699 51.552 41.5467C51.6665 41.3945 51.8235 41.2798 52.003 41.2172C52.1747 41.1388 52.1747 41.1858 52.1747 41.3034C52.2001 41.5121 52.2809 41.7102 52.4086 41.877C52.5363 42.0437 52.7062 42.173 52.9006 42.2514C53.4626 42.4237 53.8217 42.3219 54.0324 41.7264C54.132 41.216 54.0547 40.6866 53.8134 40.2263C53.572 39.766 53.1811 39.4024 52.7055 39.1958C51.87 38.9297 50.973 38.9297 50.1375 39.1958C48.9811 39.4825 47.9102 40.0441 47.0153 40.8333C46.4866 41.2702 46.0714 41.8294 45.8055 42.4629C45.679 42.8409 45.6416 43.2432 45.6962 43.6381C45.7232 44.2837 45.9256 44.9096 46.2816 45.448C46.3889 45.6543 46.556 45.8231 46.7609 45.9322C46.9657 46.0413 47.1986 46.0855 47.429 46.0591C47.8055 45.9592 48.1312 45.7217 48.3422 45.3931L48.4125 45.2991C48.7213 45.8822 49.1219 46.4113 49.5989 46.8661C50.0734 47.2769 50.4112 47.8237 50.5668 48.433C50.6574 48.692 50.6862 48.9686 50.651 49.2407C50.6157 49.5129 50.5174 49.7729 50.3639 50C50.1227 49.4849 49.7786 49.025 49.353 48.649C48.9273 48.273 48.4292 47.9888 47.8895 47.8141C47.0946 47.554 46.3814 47.0894 45.8211 46.4665C45.5011 46.0513 45.3371 45.542 45.0405 45.1189C44.6722 44.475 44.3639 43.7983 44.1195 43.0975C43.9644 42.7278 43.7313 42.3962 43.4362 42.1257C43.141 41.8552 42.791 41.6521 42.4101 41.5306C41.8169 41.3425 41.5203 41.4757 41.2471 42.1965C41.1299 42.4988 41.0512 42.8147 41.0129 43.1367C41.0114 43.2456 40.9845 43.3527 40.9344 43.4493C40.8842 43.5459 40.8122 43.6293 40.7241 43.693C40.607 43.7713 40.6227 43.8418 40.7241 43.928C41.3566 44.4425 41.8058 45.149 42.0042 45.9416C42.2378 46.6113 42.2542 47.3381 42.051 48.0178C41.9523 48.3248 41.7579 48.5918 41.4965 48.7794C41.2351 48.967 40.9206 49.0653 40.5992 49.0598C40.2598 49.0782 39.9236 48.9848 39.6419 48.7939C39.3601 48.603 39.1481 48.325 39.0381 48.0021C39.0177 47.861 39.0266 47.7171 39.0642 47.5796C39.1018 47.4421 39.1673 47.3139 39.2567 47.203C39.3347 47.0306 39.3972 47.0933 39.4518 47.203C39.579 47.4558 39.7883 47.6575 40.045 47.7749C40.1529 47.8269 40.2732 47.8472 40.392 47.8333C40.5108 47.8195 40.6233 47.772 40.7163 47.6966C40.8949 47.5445 41.0332 47.3505 41.119 47.1318C41.2048 46.913 41.2354 46.6764 41.2081 46.443C41.2341 45.925 41.0974 45.412 40.8173 44.9762C40.5372 44.5404 40.1278 44.2039 39.647 44.0142C38.8663 43.6855 38.0442 43.4667 37.2039 43.3639C36.3169 43.2111 35.4187 43.1325 34.5188 43.1289C33.4137 43.0688 32.3064 43.1905 31.2405 43.4893C30.8745 43.5729 30.5435 43.7686 30.2932 44.0494C30.0429 44.3301 29.8857 44.6819 29.8433 45.0562C29.8409 45.1112 29.8216 45.164 29.788 45.2075C29.7545 45.251 29.7084 45.283 29.656 45.2991C28.8286 45.6047 28.0481 45.8946 27.2675 46.208C27.0568 46.2785 27.0568 46.2236 27.0568 46.0669C27.0482 45.7567 27.1041 45.448 27.2211 45.1607C27.338 44.8733 27.5133 44.6136 27.7358 44.3981C28.2628 43.9103 28.8964 43.5534 29.5857 43.3561C30.4756 43.0584 31.3576 42.7528 32.2552 42.4629C32.9811 42.2357 33.707 42.032 34.4329 41.8126L34.8466 41.6638C34.566 41.5651 34.2695 41.52 33.9724 41.5306C33.2864 41.4258 32.6417 41.136 32.1069 40.6922C30.7626 39.6271 29.692 38.2543 28.9847 36.6887C28.9816 36.6574 28.9816 36.6259 28.9847 36.5946C28.8208 36.0932 28.6335 35.9914 28.1105 36.0462C26.9824 36.1592 25.8488 36.2089 24.7151 36.1951C24.0751 36.1794 23.435 36.1716 22.795 36.0932C22.1269 35.9869 21.4689 35.8244 20.828 35.6075L20.3909 35.4743C20.3024 35.4447 20.2083 35.4365 20.116 35.4503C20.0238 35.4641 19.9361 35.4995 19.8601 35.5537C19.784 35.6079 19.7218 35.6793 19.6784 35.7621C19.635 35.845 19.6117 35.9369 19.6104 36.0305C19.5917 36.2965 19.629 36.5634 19.7196 36.814C20.0426 37.7781 20.3033 38.7621 20.5002 39.7599C20.6267 40.5482 20.8604 41.3154 21.1949 42.0398C21.3495 42.3471 21.5694 42.6165 21.8392 42.8291C22.1089 43.0416 22.4219 43.1921 22.756 43.2699C23.2004 43.4111 23.6775 43.4111 24.1219 43.2699C24.3498 43.2304 24.558 43.1157 24.7135 42.944C24.8691 42.7723 24.963 42.5533 24.9805 42.3219C24.999 42.094 24.9494 41.8658 24.8382 41.6663C24.727 41.4667 24.5592 41.305 24.3561 41.2015C24.1063 41.0458 23.8221 40.9543 23.5287 40.9351C23.6846 40.794 23.8672 40.6858 24.0657 40.6172C24.2642 40.5485 24.4745 40.5208 24.6839 40.5355C25.0548 40.5559 25.411 40.6879 25.7061 40.9142C26.0013 41.1406 26.2217 41.4509 26.3387 41.8048C26.4377 42.0859 26.461 42.3883 26.4062 42.6813C26.3513 42.9744 26.2203 43.2477 26.0264 43.4736C25.725 43.8823 25.322 44.2045 24.8577 44.408C24.3933 44.6115 23.884 44.6891 23.3804 44.6332C22.4596 44.6041 21.576 44.2615 20.8748 43.6616C20.2887 43.1457 19.8791 42.4577 19.704 41.6951C19.4427 40.5303 19.255 39.3501 19.142 38.1616C19.1138 37.7769 19.0457 37.3962 18.9391 37.0256C18.8397 36.7229 18.6626 36.452 18.4255 36.2401C18.1883 36.0283 17.8997 35.883 17.5887 35.819C16.6279 35.5784 15.6207 35.5973 14.6695 35.8738C14.0882 36.0088 13.5304 36.2306 13.0147 36.532C12.764 36.6899 12.5503 36.9006 12.3886 37.1495C12.2269 37.3984 12.121 37.6795 12.0781 37.9736C12.0438 38.1943 12.091 38.4199 12.2108 38.6082C12.6869 39.47 13.1552 40.3318 13.6314 41.1858C13.6742 41.2806 13.7354 41.3659 13.8114 41.4366C13.8875 41.5074 13.9768 41.5622 14.0741 41.598C14.1715 41.6337 14.275 41.6496 14.3785 41.6448C14.4821 41.6399 14.5837 41.6144 14.6773 41.5697L14.9193 41.4914C15.3277 41.3444 15.3329 41.3502 15.6109 41.6595L15.6218 41.6716C15.9107 41.9879 16.1719 42.3286 16.4023 42.6901C16.6094 43.0489 16.7297 43.4514 16.7536 43.8653C16.4491 43.693 16.1838 43.5206 15.9028 43.3717C15.5335 43.1676 15.122 43.0523 14.7007 43.0349C14.4239 43.034 14.152 42.9614 13.9114 42.8242C13.6707 42.6869 13.4694 42.4896 13.327 42.2514C12.3044 40.7314 11.399 39.1174 10.3765 37.5975C10.3325 37.5463 10.3084 37.481 10.3084 37.4134C10.3084 37.3458 10.3325 37.2805 10.3765 37.2293C10.8665 36.4406 11.5669 35.8055 12.3981 35.3959L12.5152 35.3332C12.5943 35.3099 12.6681 35.2711 12.7322 35.219C12.7963 35.1669 12.8494 35.1025 12.8886 35.0297C12.9278 34.9568 12.9522 34.8769 12.9605 34.7945C12.9687 34.7122 12.9607 34.629 12.9367 34.5498C12.8153 33.6586 12.9283 32.751 13.2645 31.9173C13.3028 31.8231 13.3341 31.7262 13.3582 31.6274C13.3722 31.581 13.3763 31.5322 13.3702 31.4842C13.3642 31.4361 13.3481 31.3899 13.3231 31.3485C13.298 31.3071 13.2646 31.2715 13.2249 31.244C13.1852 31.2164 13.1402 31.1975 13.0928 31.1886C12.5547 31.0719 12.0484 30.8391 11.609 30.5062C11.1696 30.1734 10.8076 29.7486 10.5482 29.2613C10.2262 28.7271 9.93436 28.1751 9.67401 27.6081C9.62718 27.4984 9.59595 27.3809 9.41643 27.4514C9.2369 27.5219 9.3774 27.6159 9.3774 27.7178C9.62524 28.297 9.77305 28.9143 9.81451 29.5433C9.81451 30.7264 9.40862 31.2043 8.25341 31.4628C7.18204 31.6551 6.13501 31.9651 5.13123 32.3873C4.82763 32.5026 4.55061 32.6788 4.3171 32.9051C4.08359 33.1314 3.89848 33.4031 3.77308 33.7036C3.65439 33.9433 3.58611 34.2049 3.5725 34.4723C3.55888 34.7396 3.60021 35.0069 3.69393 35.2575C3.78764 35.5081 3.93173 35.7366 4.11723 35.9289C4.30273 36.1212 4.52567 36.2732 4.77218 36.3753C5.02365 36.5093 5.31158 36.5581 5.59295 36.5143C5.87432 36.4705 6.13403 36.3366 6.33327 36.1324C6.45295 35.9862 6.53831 35.8148 6.58305 35.631C6.62988 35.4899 6.57524 35.3097 6.8016 35.2471C6.90063 35.2177 7.00542 35.2139 7.10634 35.2358C7.20726 35.2577 7.30108 35.3046 7.3792 35.3724C7.50886 35.4832 7.59887 35.6335 7.63551 35.8004C7.67215 35.9673 7.65341 36.1417 7.58215 36.2969C7.44304 36.6836 7.19623 37.0221 6.87106 37.2721C6.54589 37.5221 6.15605 37.6731 5.74786 37.7072C5.17777 37.7944 4.59507 37.74 4.05076 37.5488C3.50646 37.3576 3.01716 37.0353 2.62568 36.6103C2.417 36.3795 2.26132 36.1055 2.16961 35.8076C2.07791 35.5098 2.0524 35.1954 2.09491 34.8867C2.17634 34.0138 2.59354 33.2071 3.25792 32.6381C3.62128 32.3283 4.06557 32.1298 4.53802 32.0661C5.52461 31.9744 6.49826 31.7747 7.44165 31.4707C7.85338 31.3186 8.21286 31.0509 8.47719 30.6994C8.74153 30.348 8.89958 29.9276 8.93249 29.4885C9.11982 27.71 8.14414 26.5112 6.77818 25.5711C5.59956 24.7171 4.3741 24.9834 3.16426 25.5005C2.91448 25.6181 2.6569 25.7826 2.38371 25.9236C2.32925 25.9482 2.284 25.9895 2.25453 26.0417C2.22505 26.0938 2.21289 26.154 2.2198 26.2135C2.26663 26.4799 2.26663 26.7384 2.26663 26.997C2.27608 27.0639 2.2637 27.1322 2.23134 27.1915C2.19899 27.2508 2.14839 27.298 2.0871 27.3261L0.143544 28.6658C0.0338671 28.4048 -0.0140485 28.1218 0.00355717 27.839C0.0211628 27.5563 0.103811 27.2815 0.245015 27.0362C0.543568 26.4967 0.969789 26.0393 1.48608 25.7043C2.39152 25.0696 3.31256 24.4507 4.26483 23.8787C4.42136 23.7705 4.60006 23.6988 4.78782 23.669C4.97557 23.6391 5.1676 23.6519 5.34978 23.7064C6.06789 23.9101 6.8016 24.0824 7.52751 24.2626C7.95681 24.3723 8.39391 24.4742 8.82321 24.5682C8.97514 24.5994 9.1318 24.5994 9.28373 24.5682C9.3774 24.5447 9.43984 24.5134 9.43984 24.3958C9.43982 24.1541 9.5024 23.9165 9.62145 23.7063C9.7405 23.4962 9.91193 23.3207 10.1189 23.1971C10.7085 22.7284 11.3851 22.3822 12.1093 22.1786C12.2888 22.1159 12.4684 22.1629 12.7025 22.1159C12.5235 21.9417 12.3941 21.7226 12.3279 21.4813C12.261 21.2378 12.2537 20.9817 12.3067 20.7347C12.3597 20.4878 12.4714 20.2574 12.6323 20.0632C13.1491 19.4019 13.7531 18.8142 14.4275 18.316C15.614 17.3837 16.9175 16.6159 18.1351 15.7227C18.7641 15.3221 19.2972 14.7871 19.6962 14.1557C19.8241 13.9646 19.8923 13.7396 19.8923 13.5094C19.8923 13.2791 19.8241 13.0541 19.6962 12.863C19.5699 12.6762 19.394 12.5288 19.1884 12.4374C18.9828 12.346 18.7558 12.3143 18.5332 12.3459C18.3736 12.3503 18.2192 12.4038 18.0908 12.499C17.9623 12.5943 17.8661 12.7268 17.8151 12.8787C17.6173 13.4028 17.4887 13.9507 17.4326 14.5083C17.4069 14.624 17.3585 14.7335 17.2902 14.8302C17.2219 14.927 17.135 15.0091 17.0348 15.0719C16.9345 15.1346 16.8228 15.1766 16.7062 15.1956C16.5895 15.2145 16.4703 15.2099 16.3555 15.1821C16.1008 15.1067 15.8548 15.0043 15.6218 14.8765C15.5221 14.8451 15.4316 14.7896 15.3582 14.715C15.2847 14.6403 15.2307 14.5487 15.2006 14.4483C15.1706 14.3478 15.1655 14.2415 15.1859 14.1386C15.2062 14.0357 15.2514 13.9394 15.3174 13.858C15.6504 13.2672 16.0991 12.7502 16.6365 12.3381C16.7807 12.2071 16.9439 12.0988 17.1204 12.0168C17.2063 11.9698 17.2141 11.9071 17.1204 11.8288C17.0594 11.7689 16.9792 11.7328 16.8941 11.7269C16.3592 11.7165 15.8338 11.8695 15.3876 12.1657C15.1669 12.3324 15.0055 12.5658 14.9271 12.8317C14.8302 13.0846 14.6587 13.3019 14.4356 13.4545C14.2124 13.6071 13.9482 13.6878 13.6782 13.6856C13.274 13.7053 12.869 13.6657 12.4762 13.5681C12.3201 13.5446 12.3201 13.4741 12.3201 13.3174C12.4137 12.7925 12.4762 12.2675 12.5464 11.7505C12.5531 11.5889 12.615 11.4346 12.7215 11.3133C12.8281 11.1921 12.973 11.1113 13.1318 11.0845C13.5877 11.0015 14.0165 10.8078 14.3807 10.5204C14.8728 10.1852 15.3469 9.82429 15.8013 9.43918C15.8919 9.36901 15.9631 9.27674 16.0082 9.17115C16.0533 9.06556 16.0707 8.95016 16.0589 8.8359C15.9811 8.28909 16.1031 7.73252 16.4023 7.26894C16.6568 6.94769 17.0268 6.73951 17.4326 6.68916C18.0258 6.53247 18.6425 6.61865 19.2435 6.53247C19.5784 6.51529 19.912 6.47866 20.2426 6.42278C20.8983 6.25041 20.9763 5.89785 20.8983 5.3024C20.8514 4.94984 20.7031 4.6051 20.7031 4.23687C20.6791 3.34065 20.9063 2.45568 21.3588 1.68272C21.5837 1.27019 21.8707 0.894932 22.2096 0.570176C22.5636 0.283926 22.997 0.114291 23.4506 0.0844174C24.5935 -0.0501133 25.7495 -0.0237426 26.885 0.162765C28.0403 0.303792 29.172 0.562341 30.3116 0.80522C30.4443 0.836559 30.5536 0.946247 30.7019 0.946247C30.4131 0.961916 30.1243 1.00892 29.8355 1.00892C29.4244 1.03576 29.0329 1.19514 28.7193 1.46334C28.645 1.53631 28.5859 1.62345 28.5456 1.71965C28.5053 1.81585 28.4845 1.91916 28.4845 2.02353C28.4845 2.1279 28.5053 2.23122 28.5456 2.32742C28.5859 2.42361 28.645 2.51076 28.7193 2.58372C29.157 2.9894 29.6759 3.29659 30.2414 3.48473L30.8658 3.7276C30.8268 3.78245 30.7565 3.78245 30.7019 3.78245C30.0003 3.77841 29.2991 3.81766 28.6022 3.89997C28.3102 3.92259 28.0219 3.98046 27.7436 4.07234C27.6266 4.09456 27.5185 4.15078 27.433 4.23404C27.3474 4.31729 27.2881 4.42391 27.2623 4.54069C27.2366 4.65747 27.2455 4.77927 27.2881 4.89099C27.3306 5.00271 27.4049 5.09945 27.5017 5.16921C27.9841 5.63499 28.57 5.97876 29.2111 6.17207L30.0463 6.36794C29.7106 6.46979 29.414 6.5403 29.133 6.63432C28.2412 6.86351 27.3923 7.2366 26.6197 7.73903C26.5093 7.80472 26.4168 7.89671 26.3503 8.00685C26.2838 8.11699 26.2454 8.24189 26.2384 8.37048C26.2315 8.49908 26.2562 8.62741 26.3105 8.74412C26.3647 8.86083 26.4468 8.96232 26.5494 9.03961C27.1417 9.53674 27.8223 9.91689 28.5554 10.16C29.426 10.4912 30.3212 10.7532 31.2327 10.9435L32.3176 11.1315C32.2096 11.1679 32.0958 11.1838 31.982 11.1785C30.9474 11.1992 29.9226 11.3843 28.9457 11.7269C28.6184 11.8108 28.3114 11.9602 28.0431 12.1662C27.7749 12.3722 27.5509 12.6306 27.3846 12.9257C27.3327 12.9945 27.2973 13.0743 27.281 13.1591C27.2647 13.2438 27.268 13.3311 27.2907 13.4144C27.3133 13.4976 27.3546 13.5745 27.4115 13.6392C27.4684 13.7039 27.5393 13.7546 27.6188 13.7875C28.1568 14.1041 28.7503 14.3142 29.3672 14.4065C30.0541 14.5579 30.7409 14.6911 31.4278 14.806C32.2864 14.9392 33.1372 15.0646 34.0036 15.1351C34.1261 15.1224 34.2493 15.1499 34.3549 15.2134L33.0435 15.331L30.0463 15.5503C29.9912 15.5503 29.9371 15.5657 29.8903 15.5948C29.8434 15.6238 29.8055 15.6654 29.7809 15.7149C29.734 15.8324 29.8277 15.9029 29.9058 15.9734L31.2873 17.1721H30.1009H29.172C29.1053 17.1564 29.0358 17.1564 28.9691 17.1721C28.8676 17.2192 28.7662 17.2662 28.7584 17.4072C28.7505 17.5482 28.8832 17.5482 28.9535 17.5482C29.4512 17.7743 29.9759 17.9349 30.5146 18.0261C31.1312 18.1593 31.6776 18.2612 32.3723 18.3944C33.067 18.5276 33.7538 18.6451 34.4407 18.8018H33.7929C32.4191 18.8096 31.0454 18.8175 29.6716 18.9115C29.0189 18.9329 28.3702 19.0222 27.7358 19.1779C27.6017 19.2092 27.471 19.2538 27.3456 19.311C27.049 19.4834 26.8382 19.7498 27.1738 20.1494C27.5153 20.5188 27.9493 20.7894 28.4305 20.9328C28.9691 21.1313 29.5261 21.2757 30.0931 21.3638C30.179 21.3804 30.2594 21.4181 30.3272 21.4735C29.7965 21.5283 29.2579 21.5283 28.7272 21.5283H28.7271C27.9808 21.5282 27.2352 21.5753 26.4948 21.6693C25.8819 21.7115 25.2841 21.8795 24.7385 22.1629C24.6436 22.2006 24.5604 22.2632 24.4978 22.3442C24.4352 22.4252 24.3954 22.5216 24.3827 22.6233C24.3699 22.725 24.3846 22.8283 24.4252 22.9224C24.4659 23.0164 24.531 23.0978 24.6137 23.1579C24.9263 23.4243 25.2943 23.617 25.6908 23.722C26.565 24.0041 27.4548 24.1999 28.3445 24.3958L28.3447 24.3958C28.8442 24.5134 29.3516 24.6074 29.8511 24.7092C29.8901 24.7171 29.9604 24.7171 29.9604 24.7954C29.5545 24.9756 29.1408 25.1323 28.7193 25.2812C28.1209 25.4604 27.5105 25.5965 26.8928 25.6886C26.7988 25.6894 26.7072 25.7191 26.6304 25.7737C26.5537 25.8284 26.4954 25.9053 26.4635 25.9941C26.4366 26.0939 26.44 26.1994 26.4734 26.2972C26.5068 26.3949 26.5686 26.4804 26.6509 26.5426C27.0064 26.846 27.4252 27.0655 27.8763 27.185C28.6283 27.4449 29.4319 27.5175 30.218 27.3966C30.7705 27.2894 31.3135 27.1374 31.8415 26.9421C32.7704 26.6444 33.6836 26.3075 34.6203 26.049C35.3618 25.8374 36.0955 25.6416 36.876 25.5005C37.8296 25.3154 38.8019 25.247 39.7719 25.2968C40.7397 25.3473 41.6839 25.615 42.535 26.0803C43.1701 26.4793 43.7636 26.9413 44.3068 27.4592C45.3316 28.3873 46.2865 29.3903 47.1636 30.46C47.5299 30.9665 48.0189 31.371 48.5842 31.6352C48.8154 31.7577 49.0697 31.8301 49.3306 31.8477C49.5914 31.8652 49.8531 31.8275 50.0985 31.7371C50.3131 31.6146 50.4958 31.4429 50.6315 31.2359C50.7672 31.0288 50.852 30.7925 50.879 30.5462C51.0355 29.5839 51.0117 28.6008 50.8088 27.6473C50.6821 26.8511 50.4969 26.0655 50.2546 25.2968C49.9763 24.4597 49.7854 23.5959 49.6848 22.7192C49.4584 20.3217 50.036 18.2377 52.1201 16.7961C52.9825 16.2136 53.9463 15.799 54.9613 15.5738C56.3005 15.2737 57.6806 15.2022 59.0435 15.3623Z" fill="#C9B44A"/>
</svg>
