<svg width="331" height="35" viewBox="0 0 331 35" fill="none" xmlns="http://www.w3.org/2000/svg">
<path d="M94.4697 13.9998C94.8182 13.9998 94.9939 14.169 94.9939 14.5016V16.6691C94.9939 17.0047 94.8182 17.171 94.4697 17.171H84.4692C83.9732 17.1616 83.4777 17.2113 82.9934 17.3191C82.6415 17.3988 82.3179 17.5722 82.057 17.8209C81.805 18.087 81.6346 18.4196 81.5661 18.7792C81.4639 19.2703 81.4172 19.7712 81.4267 20.2726V20.5024H94.3485C94.4169 20.4922 94.4867 20.4981 94.5525 20.5197C94.6182 20.5413 94.6779 20.578 94.7268 20.6268C94.7757 20.6756 94.8125 20.7352 94.8341 20.8007C94.8558 20.8663 94.8618 20.936 94.8515 21.0042V22.8181C94.8618 22.8863 94.8558 22.956 94.8341 23.0216C94.8125 23.0871 94.7757 23.1467 94.7268 23.1955C94.6779 23.2443 94.6182 23.2809 94.5525 23.3026C94.4867 23.3242 94.4169 23.3301 94.3485 23.3199H81.4328V23.7068C81.4221 24.2143 81.4689 24.7213 81.5722 25.2184C81.6407 25.578 81.8111 25.9106 82.0631 26.1767C82.324 26.4254 82.6476 26.5988 82.9995 26.6785C83.4838 26.7862 83.9792 26.836 84.4753 26.8266H94.4757C94.8242 26.8266 95 26.9929 95 27.3285V29.496C95 29.8285 94.8242 29.9978 94.4757 29.9978H84.4056C83.4131 30.0157 82.4223 29.9081 81.457 29.6774C80.7211 29.5015 80.041 29.145 79.4781 28.6405C78.9457 28.1261 78.559 27.4806 78.3569 26.7692C78.1016 25.8595 77.9821 24.9173 78.0023 23.9729V20.0429C77.9816 19.1034 78.1011 18.1661 78.3569 17.2616C78.5597 16.5541 78.9465 15.9127 79.4781 15.4025C80.0408 14.8951 80.7206 14.5347 81.457 14.3535C82.4209 14.1137 83.4124 14.0019 84.4056 14.0209L94.4697 13.9998Z" fill="#C9B44A"/>
<path d="M116.85 14.0041C116.921 13.9945 116.994 14.0009 117.062 14.0228C117.13 14.0447 117.192 14.0815 117.243 14.1303C117.294 14.179 117.332 14.2385 117.355 14.3039C117.378 14.3693 117.384 14.4389 117.374 14.5073V16.6806C117.385 16.7491 117.379 16.819 117.356 16.8847C117.334 16.9504 117.295 17.0101 117.244 17.0591C117.193 17.108 117.131 17.1448 117.063 17.1664C116.994 17.1881 116.921 17.1941 116.85 17.1838H104.914C104.735 17.1662 104.553 17.1878 104.384 17.2471C104.214 17.3065 104.061 17.4019 103.935 17.5263C103.732 17.7994 103.632 18.1309 103.651 18.466V19.2329C103.651 20.0877 104.064 20.5151 104.889 20.5151H113.825C115.208 20.5151 116.249 20.8546 116.948 21.5336C117.647 22.2126 117.996 23.1846 117.996 24.4496V26.2683C118.019 26.7612 117.94 27.2535 117.764 27.7169C117.587 28.1804 117.318 28.6059 116.97 28.9691C116.288 29.6542 115.224 29.9977 113.778 29.9998H100.575C100.212 29.9998 100.029 29.83 100.029 29.4966V27.3414C100.029 27.0049 100.212 26.8382 100.575 26.8382H113.08C113.26 26.8562 113.441 26.8344 113.611 26.7745C113.781 26.7146 113.934 26.6182 114.059 26.4927C114.262 26.2209 114.363 25.8903 114.343 25.556V24.6194C114.343 23.7646 113.93 23.3372 113.105 23.3372H104.175C102.792 23.3372 101.751 22.9977 101.052 22.3187C100.353 21.6397 100.004 20.6677 100.004 19.4027V17.7325C99.981 17.24 100.06 16.7481 100.236 16.2851C100.412 15.8221 100.682 15.3971 101.03 15.0347C101.712 14.3476 102.776 14.0041 104.223 14.0041H116.85Z" fill="#C9B44A"/>
<path d="M139.47 14.0006C139.818 14.0006 139.994 14.1699 139.994 14.5024V16.6698C139.994 17.0054 139.818 17.1716 139.47 17.1716H129.471C128.975 17.1623 128.48 17.212 127.996 17.3197C127.644 17.3994 127.32 17.5728 127.059 17.8215C126.807 18.0876 126.637 18.4202 126.568 18.7798C126.466 19.2708 126.42 19.7717 126.429 20.2731V20.5029H139.349C139.417 20.4927 139.487 20.4986 139.553 20.5202C139.618 20.5418 139.678 20.5785 139.727 20.6273C139.776 20.6761 139.813 20.7356 139.834 20.8012C139.856 20.8667 139.862 20.9364 139.852 21.0047V22.8184C139.862 22.8867 139.856 22.9564 139.834 23.0219C139.813 23.0875 139.776 23.147 139.727 23.1958C139.678 23.2446 139.618 23.2813 139.553 23.3029C139.487 23.3245 139.417 23.3305 139.349 23.3202H126.435V23.7072C126.425 24.2146 126.471 24.7216 126.575 25.2186C126.643 25.5783 126.813 25.9108 127.065 26.1769C127.326 26.4256 127.65 26.599 128.002 26.6787C128.486 26.7864 128.981 26.8362 129.477 26.8268H139.476C139.824 26.8268 140 26.9931 140 27.3286V29.4961C140 29.8286 139.824 29.9979 139.476 29.9979H129.404C128.412 30.0156 127.422 29.9079 126.456 29.6775C125.721 29.5015 125.041 29.1451 124.478 28.6406C123.947 28.1252 123.56 27.4801 123.357 26.7694C123.102 25.8598 122.982 24.9176 123.002 23.9732V20.0434C122.982 19.104 123.101 18.1667 123.357 17.2623C123.561 16.5553 123.947 15.9142 124.478 15.4032C125.04 14.8959 125.72 14.5355 126.456 14.3543C127.419 14.1076 128.41 13.9887 129.404 14.0006H139.47Z" fill="#C9B44A"/>
<path d="M167.531 14.0118C168.522 13.9923 169.511 14.1195 170.469 14.39C171.215 14.5999 171.904 14.9992 172.478 15.5546C173.014 16.1064 173.411 16.7982 173.629 17.5634C173.89 18.4955 174.015 19.4663 173.998 20.4403V23.5562C174.016 24.5332 173.891 25.5071 173.629 26.4422C173.411 27.2074 173.014 27.8991 172.478 28.4509C171.904 29.0064 171.215 29.4057 170.469 29.6156C169.511 29.8861 168.522 30.0133 167.531 29.9937H157.639C157.553 30.007 157.465 29.9983 157.382 29.9684C157.3 29.9385 157.225 29.8883 157.163 29.8216C157.102 29.7549 157.056 29.6737 157.028 29.5844C157.001 29.4951 156.993 29.4001 157.006 29.307V14.6925C156.993 14.5994 157.001 14.5044 157.028 14.4151C157.056 14.3258 157.102 14.2446 157.163 14.1779C157.225 14.1113 157.3 14.061 157.382 14.0311C157.465 14.0012 157.553 13.9925 157.639 14.0058L167.531 14.0118ZM160.249 26.5209C160.243 26.5621 160.246 26.6044 160.258 26.6442C160.27 26.684 160.29 26.7202 160.317 26.7498C160.345 26.7794 160.378 26.8015 160.415 26.8143C160.452 26.8271 160.491 26.8302 160.529 26.8234H167.464C167.99 26.8354 168.516 26.7734 169.027 26.6388C169.412 26.5378 169.765 26.3291 170.052 26.0338C170.328 25.7309 170.522 25.3521 170.612 24.9387C170.734 24.385 170.791 23.8167 170.78 23.2476V20.7428C170.791 20.1747 170.734 19.6075 170.612 19.0548C170.522 18.641 170.328 18.2621 170.052 17.9597C169.765 17.6643 169.412 17.4557 169.027 17.3546C168.516 17.2201 167.99 17.158 167.464 17.1701H160.513C160.33 17.1701 160.232 17.276 160.232 17.4908L160.249 26.5209Z" fill="#C9B44A"/>
<path d="M196.501 13.9998C196.832 13.9998 196.994 14.169 196.994 14.5016V16.6691C196.994 17.0047 196.832 17.171 196.501 17.171H187.087C186.62 17.1616 186.154 17.2113 185.698 17.3191C185.367 17.3988 185.062 17.5722 184.816 17.8209C184.579 18.087 184.419 18.4196 184.354 18.7792C184.261 19.2706 184.218 19.7714 184.226 20.2726V20.5024H196.387C196.452 20.49 196.519 20.4943 196.582 20.515C196.646 20.5356 196.704 20.572 196.751 20.6211C196.798 20.6701 196.834 20.7305 196.855 20.7972C196.876 20.8638 196.882 20.9348 196.872 21.0042V22.8181C196.881 22.8863 196.876 22.956 196.855 23.0216C196.835 23.0871 196.8 23.1467 196.754 23.1955C196.708 23.2443 196.652 23.2809 196.59 23.3026C196.528 23.3242 196.463 23.3301 196.398 23.3199H184.232V23.7068C184.222 24.2141 184.265 24.721 184.36 25.2184C184.425 25.578 184.585 25.9106 184.822 26.1767C185.068 26.4254 185.372 26.5988 185.704 26.6785C186.159 26.7863 186.626 26.836 187.093 26.8266H196.506C196.837 26.8266 197 26.9929 197 27.3285V29.496C197 29.8286 196.837 29.9978 196.506 29.9978H187.03C186.095 30.0157 185.161 29.908 184.252 29.6774C183.559 29.5015 182.919 29.145 182.389 28.6405C181.89 28.1248 181.527 27.4796 181.336 26.7692C181.095 25.8598 180.982 24.9174 181.002 23.9729V20.0429C180.982 19.1033 181.094 18.1657 181.336 17.2616C181.527 16.5549 181.89 15.9138 182.389 15.4025C182.918 14.8951 183.558 14.5347 184.252 14.3535C185.16 14.1137 186.094 14.0019 187.03 14.0209L196.501 13.9998Z" fill="#C9B44A"/>
<path d="M220.35 14.0008C220.556 14.0008 220.67 14.0735 220.691 14.2188C220.703 14.2868 220.699 14.3569 220.678 14.4226C220.656 14.4883 220.62 14.5474 220.57 14.5943L213.762 21.7013L220.873 29.4019C220.922 29.4496 220.959 29.5093 220.98 29.5754C221.001 29.6415 221.006 29.7119 220.993 29.7804C220.972 29.9257 220.857 29.9984 220.65 29.9984H217.62C217.477 30.0039 217.334 29.9802 217.2 29.9288C217.082 29.8733 216.981 29.7865 216.906 29.6774L211.435 23.7665L205.938 29.6774C205.856 29.7798 205.756 29.8652 205.644 29.9288C205.505 29.9822 205.357 30.0059 205.209 29.9984H202.329C202.135 29.9984 202.036 29.9257 202.006 29.7804C201.994 29.7117 202 29.6411 202.021 29.5749C202.043 29.5088 202.08 29.4493 202.13 29.4019L209.414 21.5893L202.832 14.5943C202.788 14.5436 202.756 14.4838 202.737 14.419C202.717 14.3543 202.712 14.286 202.72 14.2188C202.734 14.0735 202.845 14.0008 203.055 14.0008H206.09C206.236 13.9941 206.38 14.0221 206.513 14.0826C206.626 14.1406 206.726 14.222 206.807 14.3218L211.641 19.6241L216.759 14.3218C216.84 14.222 216.94 14.1406 217.053 14.0826C217.186 14.0218 217.331 13.9938 217.476 14.0008H220.35Z" fill="#C9B44A"/>
<path d="M71.6151 14.539C71.3472 14.1797 70.842 14.0001 70.0994 14.0001H67.7684C67.4962 13.9966 67.2242 14.0199 66.956 14.0697C66.7421 14.1108 66.5393 14.2007 66.3618 14.3331C66.1753 14.4734 66.0172 14.6515 65.8968 14.8569C65.7308 15.1368 65.5886 15.4317 65.4719 15.738L60.9793 26.7043C60.9554 26.7679 60.9131 26.822 60.8586 26.8589C60.804 26.8958 60.7398 26.9138 60.675 26.9102H60.4167C60.3518 26.9142 60.2874 26.8965 60.2328 26.8595C60.1781 26.8225 60.1359 26.7682 60.1124 26.7043L55.6054 15.738C55.4907 15.4312 55.3495 15.1363 55.1834 14.8569C55.0612 14.6529 54.9034 14.4751 54.7184 14.3331C54.5373 14.1995 54.3305 14.1095 54.1127 14.0697C53.8406 14.0202 53.5648 13.9969 53.2888 14.0001H50.9262C50.1626 14.0001 49.6488 14.1787 49.3904 14.539C49.1321 14.8993 49 15.5079 49 16.3768V29.4928C49 29.8259 49.1665 29.9954 49.4966 29.9954H51.707C51.7717 30.005 51.8377 29.9986 51.8996 29.9767C51.9616 29.9549 52.0179 29.9181 52.0641 29.8694C52.1103 29.8207 52.1451 29.7613 52.1658 29.696C52.1866 29.6306 52.1927 29.5611 52.1836 29.4928V17.5637C52.1836 17.4123 52.241 17.3366 52.3558 17.3366H52.5539C52.6142 17.3278 52.6756 17.3411 52.7278 17.3741C52.78 17.4071 52.8199 17.458 52.841 17.5183L57.2187 27.7549C57.3661 28.1171 57.5439 28.4646 57.7498 28.7934C57.9079 29.0548 58.1013 29.2904 58.3239 29.4928C58.533 29.6748 58.7768 29.807 59.0387 29.8804C59.3475 29.9618 59.665 30.0005 59.9832 29.9954H61.0224C61.3396 30.0005 61.6562 29.9618 61.964 29.8804C62.2259 29.807 62.4697 29.6748 62.6788 29.4928C62.9005 29.2895 63.0938 29.054 63.2529 28.7934C63.4577 28.4639 63.6354 28.1165 63.784 27.7549L68.1703 17.5183C68.1918 17.4583 68.2318 17.4078 68.2839 17.3748C68.336 17.3419 68.3972 17.3284 68.4574 17.3366H68.6526C68.7674 17.3366 68.8277 17.4123 68.8277 17.5637V29.4928C68.8186 29.5611 68.8247 29.6306 68.8455 29.696C68.8662 29.7613 68.901 29.8207 68.9472 29.8694C68.9934 29.9181 69.0497 29.9549 69.1117 29.9767C69.1736 29.9986 69.2396 30.005 69.3043 29.9954H71.5003C71.8333 29.9954 71.9998 29.8259 71.9998 29.4928V16.3768C72.0056 15.5079 71.8735 14.8963 71.6151 14.539ZM50.642 20.2917C50.4501 20.2917 50.2625 20.2316 50.103 20.1192C49.9434 20.0067 49.819 19.8469 49.7456 19.6599C49.6722 19.4729 49.6529 19.2672 49.6904 19.0686C49.7278 18.8701 49.8202 18.6878 49.9559 18.5447C50.0916 18.4015 50.2645 18.3041 50.4527 18.2646C50.6409 18.2251 50.836 18.2454 51.0133 18.3228C51.1906 18.4003 51.3422 18.5315 51.4488 18.6997C51.5554 18.868 51.6123 19.0659 51.6123 19.2683C51.6131 19.4032 51.5885 19.5369 51.5401 19.6618C51.4917 19.7866 51.4203 19.9002 51.3302 19.9958C51.24 20.0915 51.1328 20.1674 51.0147 20.2192C50.8966 20.271 50.7699 20.2977 50.642 20.2977V20.2917Z" fill="#C9B44A"/>
<path d="M11.968 11.2753C11.6407 11.6895 11.2031 12.0027 10.7055 12.1787C10.4283 12.2953 10.1314 12.3579 9.83072 12.3632C9.58709 12.3753 9.34735 12.2985 9.15603 12.1472C8.9647 11.9958 8.8348 11.7801 8.79043 11.5402C8.76705 11.3776 8.79175 11.2117 8.86149 11.0629C8.93123 10.9142 9.04296 10.7891 9.18291 10.7031L9.37678 10.5801C9.53755 11.2895 10.4454 11.526 11.0554 11.4693C11.3648 11.4318 11.6702 11.3669 11.968 11.2753Z" fill="#C9B44A"/>
<path d="M39.545 11.6963C40.2449 11.7679 40.9366 11.904 41.6114 12.1031C41.9235 12.1976 42.2356 12.297 42.5477 12.3868C42.5231 12.4018 42.4958 12.4115 42.4673 12.4156C42.4389 12.4197 42.4099 12.4179 42.3822 12.4105C41.7095 12.2807 41.0223 12.2425 40.3394 12.297C40.036 12.3143 39.741 12.4035 39.4788 12.5571C39.3852 12.5886 39.3021 12.6452 39.2385 12.7208C39.1749 12.7963 39.1332 12.8879 39.1181 12.9855C39.103 13.0831 39.115 13.183 39.1527 13.2743C39.1905 13.3655 39.2526 13.4447 39.3322 13.5031C39.6535 13.8386 40.0332 14.1127 40.4529 14.3118C40.8548 14.5294 41.2709 14.7139 41.6823 14.9267L41.6823 14.9267C41.4742 14.903 41.2662 14.8794 41.0582 14.8463C40.2864 14.7115 39.5055 14.6356 38.7222 14.6193C38.4684 14.623 38.2201 14.6949 38.0035 14.8274C37.8936 14.8899 37.7981 14.9748 37.7231 15.0766C37.6481 15.1784 37.5953 15.2948 37.5681 15.4183C37.5409 15.5418 37.5399 15.6696 37.5652 15.7935C37.5905 15.9174 37.6416 16.0346 37.7151 16.1375C37.9647 16.4943 38.3131 16.7705 38.7175 16.9321C39.5458 17.3037 40.3934 17.6305 41.2568 17.9112H41.0251C40.2779 17.8402 39.5261 17.7835 38.7743 17.7835C38.4731 17.7926 38.1751 17.8468 37.89 17.9443C37.7331 17.9813 37.5882 18.0578 37.4692 18.1666C37.4216 18.2066 37.3824 18.2556 37.3539 18.3108C37.3253 18.366 37.3079 18.4263 37.3026 18.4882C37.2973 18.5502 37.3043 18.6126 37.3232 18.6718C37.342 18.731 37.3723 18.786 37.4124 18.8335C37.6285 19.1261 37.9169 19.3575 38.2494 19.5051C39.0366 19.8889 39.8467 20.2238 40.6751 20.5078L40.6753 20.5078C40.8218 20.5599 40.9684 20.6119 41.1102 20.6733C40.9068 20.6449 40.7177 20.6591 40.434 20.6118C40.1503 20.5645 39.8666 20.5504 39.5828 20.5172C39.2087 20.4621 38.8309 20.4352 38.4527 20.4368C38.2891 20.4464 38.1287 20.4865 37.9799 20.5551C37.9227 20.5734 37.8714 20.6067 37.8315 20.6516C37.7916 20.6964 37.7644 20.7512 37.7528 20.8101C37.7412 20.869 37.7456 20.93 37.7656 20.9866C37.7856 21.0433 37.8204 21.0935 37.8664 21.1321C38.07 21.3386 38.3149 21.4997 38.5851 21.6051C39.1185 21.8628 39.67 22.0809 40.2354 22.2578C40.259 22.2625 40.2921 22.2956 40.2921 22.2956C39.8837 22.2541 39.478 22.1894 39.0769 22.1017C38.6749 22.0308 38.273 21.9598 37.8711 21.8747C37.5265 21.7731 37.1614 21.7633 36.8119 21.8463C36.7545 21.8596 36.7008 21.8856 36.6549 21.9225C36.6089 21.9594 36.5718 22.0061 36.5464 22.0593C36.521 22.1124 36.5078 22.1706 36.5079 22.2296C36.5081 22.2885 36.5214 22.3466 36.5471 22.3997C36.6798 22.6107 36.8636 22.7847 37.0814 22.9058C37.652 23.2586 38.2654 23.5367 38.9067 23.7335C38.9681 23.7524 39.0107 23.8091 39.0722 23.8091C38.5425 23.7855 38.0224 23.7287 37.5023 23.6862C36.9569 23.5821 36.4059 23.511 35.852 23.4733C35.727 23.4713 35.6063 23.519 35.5163 23.6058C35.3791 23.724 35.4028 23.9085 35.5777 24.0787C35.803 24.276 36.0649 24.4271 36.3485 24.5233C36.8214 24.6936 37.2942 24.8497 37.7671 24.9963H37.1429C36.5541 24.9521 35.9729 24.8362 35.4122 24.651C35.2846 24.6037 35.1569 24.5706 35.0339 24.5139C34.8041 24.4454 34.5593 24.4454 34.3294 24.5139C34.0315 24.547 33.7431 24.6274 33.4452 24.6794C33.3553 24.6936 33.3553 24.774 33.3553 24.7976V24.8591C33.4073 25.1335 33.3931 25.2706 33.7903 25.2044C34.3267 25.1433 34.8699 25.2002 35.382 25.3709C35.8941 25.5416 36.3627 25.8222 36.7552 26.1929C36.9365 26.3665 37.0781 26.5773 37.1703 26.8108C37.2626 27.0443 37.3032 27.2949 37.2895 27.5456C37.2616 27.7789 37.1662 27.999 37.015 28.1788C36.8638 28.3586 36.6634 28.4903 36.4383 28.5578C36.2339 28.6164 36.0193 28.6307 35.809 28.5997C35.5986 28.5687 35.3972 28.4931 35.2184 28.3781C35.1146 28.3281 35.0281 28.2484 34.9696 28.1492C34.9112 28.05 34.8835 27.9356 34.8901 27.8207C34.8967 27.7057 34.9372 27.5953 35.0066 27.5034C35.076 27.4114 35.1711 27.3422 35.2798 27.3044C35.3839 27.2571 35.3839 27.2855 35.3839 27.3564C35.3993 27.4825 35.4482 27.602 35.5255 27.7027C35.6029 27.8034 35.7058 27.8814 35.8236 27.9287C36.1641 28.0328 36.3816 27.9713 36.5093 27.6118C36.5696 27.3037 36.5228 26.9841 36.3766 26.7063C36.2304 26.4284 35.9935 26.2089 35.7054 26.0841C35.1993 25.9235 34.6558 25.9235 34.1497 26.0841C33.4491 26.2572 32.8004 26.5963 32.2583 27.0727C31.938 27.3364 31.6864 27.674 31.5254 28.0564C31.4487 28.2846 31.4261 28.5275 31.4592 28.7659C31.4755 29.1556 31.5981 29.5335 31.8138 29.8585C31.8788 29.983 31.98 30.0849 32.1041 30.1508C32.2282 30.2166 32.3693 30.2433 32.5089 30.2274C32.737 30.1671 32.9343 30.0237 33.0621 29.8254L33.1047 29.7686C33.2917 30.1206 33.5345 30.44 33.8234 30.7145C34.1109 30.9626 34.3155 31.2927 34.4098 31.6605C34.4647 31.8168 34.4821 31.9838 34.4608 32.1481C34.4394 32.3124 34.3798 32.4694 34.2868 32.6064C34.1407 32.2955 33.9323 32.0179 33.6744 31.7909C33.4166 31.5639 33.1148 31.3923 32.7879 31.2868C32.3063 31.1298 31.8743 30.8493 31.5348 30.4733C31.3409 30.2227 31.2416 29.9152 31.062 29.6598C30.8388 29.2711 30.652 28.8626 30.504 28.4395C30.41 28.2163 30.2688 28.0162 30.09 27.8529C29.9112 27.6896 29.6992 27.567 29.4684 27.4936C29.1091 27.3801 28.9294 27.4605 28.7639 27.8956C28.6928 28.0781 28.6452 28.2688 28.622 28.4632C28.6211 28.5289 28.6048 28.5936 28.5744 28.6519C28.544 28.7102 28.5004 28.7606 28.4471 28.799C28.3761 28.8463 28.3856 28.8889 28.4471 28.9409C28.8302 29.2515 29.1023 29.678 29.2225 30.1564C29.364 30.5608 29.374 30.9995 29.2509 31.4098C29.1911 31.5951 29.0733 31.7563 28.915 31.8696C28.7566 31.9828 28.566 32.0422 28.3714 32.0389C28.1658 32.0499 27.9621 31.9936 27.7914 31.8783C27.6207 31.7631 27.4923 31.5953 27.4257 31.4004C27.4133 31.3152 27.4187 31.2283 27.4415 31.1453C27.4642 31.0623 27.5039 30.9849 27.5581 30.9179C27.6054 30.8139 27.6432 30.8517 27.6763 30.9179C27.7534 31.0705 27.8801 31.1923 28.0357 31.2632C28.101 31.2946 28.1739 31.3068 28.2458 31.2984C28.3178 31.2901 28.386 31.2614 28.4423 31.2159C28.5505 31.1241 28.6343 31.007 28.6863 30.8749C28.7382 30.7429 28.7568 30.6001 28.7402 30.4591C28.756 30.1465 28.6732 29.8367 28.5035 29.5737C28.3338 29.3106 28.0858 29.1074 27.7945 28.9929C27.3216 28.7945 26.8235 28.6624 26.3145 28.6004C25.7771 28.5081 25.233 28.4607 24.6878 28.4585C24.0184 28.4222 23.3475 28.4957 22.7018 28.676C22.4801 28.7265 22.2796 28.8447 22.128 29.0141C21.9763 29.1836 21.8811 29.396 21.8554 29.622C21.854 29.6551 21.8423 29.687 21.8219 29.7133C21.8016 29.7395 21.7737 29.7589 21.7419 29.7686C21.2407 29.9531 20.7678 30.1281 20.295 30.3172C20.1673 30.3598 20.1673 30.3267 20.1673 30.2321C20.1621 30.0448 20.196 29.8585 20.2669 29.685C20.3377 29.5116 20.4439 29.3548 20.5787 29.2247C20.8979 28.9302 21.2818 28.7147 21.6994 28.5956C22.2384 28.4159 22.7728 28.2314 23.3165 28.0564C23.7563 27.9193 24.1961 27.7963 24.6358 27.6639L24.8864 27.574C24.7164 27.5145 24.5368 27.4872 24.3568 27.4936C23.9413 27.4303 23.5507 27.2554 23.2267 26.9875C22.4123 26.3445 21.7638 25.5158 21.3353 24.5706C21.3334 24.5518 21.3334 24.5327 21.3353 24.5139C21.236 24.2112 21.1225 24.1497 20.8057 24.1828C20.1222 24.251 19.4355 24.281 18.7487 24.2726C18.361 24.2632 17.9733 24.2585 17.5855 24.2112C17.1808 24.147 16.7822 24.0489 16.3939 23.9179L16.1291 23.8375C16.0755 23.8197 16.0185 23.8147 15.9626 23.823C15.9067 23.8314 15.8536 23.8528 15.8075 23.8855C15.7615 23.9182 15.7238 23.9613 15.6975 24.0113C15.6712 24.0613 15.6571 24.1168 15.6563 24.1733C15.645 24.3339 15.6675 24.495 15.7225 24.6463C15.9181 25.2283 16.076 25.8223 16.1953 26.4247C16.2719 26.9006 16.4135 27.3637 16.6162 27.801C16.7098 27.9865 16.8431 28.1492 17.0065 28.2775C17.1699 28.4058 17.3595 28.4966 17.5619 28.5436C17.8311 28.6288 18.1201 28.6288 18.3894 28.5436C18.5274 28.5198 18.6535 28.4505 18.7478 28.3469C18.842 28.2432 18.8989 28.111 18.9095 27.9713C18.9207 27.8337 18.8907 27.696 18.8233 27.5755C18.756 27.4551 18.6543 27.3574 18.5312 27.2949C18.3799 27.2009 18.2078 27.1457 18.03 27.1341C18.1244 27.0489 18.2351 26.9836 18.3553 26.9422C18.4756 26.9007 18.603 26.884 18.7298 26.8929C18.9545 26.9052 19.1703 26.9849 19.3491 27.1215C19.5279 27.2582 19.6614 27.4455 19.7323 27.6591C19.7923 27.8288 19.8064 28.0114 19.7732 28.1883C19.74 28.3652 19.6606 28.5302 19.5431 28.6666C19.3605 28.9133 19.1164 29.1078 18.8351 29.2306C18.5538 29.3535 18.2452 29.4003 17.9402 29.3666C17.3823 29.349 16.847 29.1422 16.4223 28.7801C16.0672 28.4686 15.8191 28.0533 15.713 27.5929C15.5547 26.8898 15.441 26.1773 15.3725 25.4598C15.3554 25.2276 15.3142 24.9977 15.2496 24.774C15.1894 24.5913 15.0821 24.4277 14.9384 24.2999C14.7948 24.172 14.62 24.0843 14.4316 24.0456C13.8495 23.9004 13.2393 23.9118 12.6631 24.0787C12.3109 24.1602 11.973 24.2941 11.6606 24.476C11.5087 24.5714 11.3793 24.6986 11.2813 24.8488C11.1833 24.9991 11.1192 25.1688 11.0932 25.3463C11.0724 25.4795 11.101 25.6158 11.1736 25.7294C11.462 26.2497 11.7457 26.7699 12.0342 27.2855C12.0601 27.3427 12.0972 27.3942 12.1433 27.4369C12.1893 27.4796 12.2434 27.5127 12.3024 27.5343C12.3614 27.5559 12.4241 27.5655 12.4868 27.5625C12.5496 27.5596 12.6111 27.5442 12.6678 27.5172L12.8144 27.4699C13.0618 27.3812 13.065 27.3847 13.2334 27.5714L13.24 27.5787C13.415 27.7697 13.5732 27.9754 13.7128 28.1936C13.8383 28.4102 13.9112 28.6532 13.9256 28.9031C13.7412 28.799 13.5804 28.6949 13.4102 28.6051C13.1865 28.4818 12.9372 28.4122 12.682 28.4017C12.5143 28.4012 12.3496 28.3574 12.2038 28.2745C12.058 28.1917 11.936 28.0726 11.8498 27.9287C11.2303 27.0112 10.6818 26.0368 10.0624 25.1193C10.0357 25.0884 10.0211 25.0489 10.0211 25.0081C10.0211 24.9673 10.0357 24.9279 10.0624 24.897C10.3592 24.4209 10.7835 24.0375 11.2871 23.7902L11.358 23.7524C11.4059 23.7383 11.4506 23.7148 11.4894 23.6834C11.5283 23.6519 11.5605 23.6131 11.5842 23.5691C11.608 23.5252 11.6228 23.4769 11.6278 23.4272C11.6328 23.3775 11.6279 23.3272 11.6133 23.2794C11.5398 22.7414 11.6083 22.1935 11.8119 21.6902C11.8351 21.6334 11.8541 21.5749 11.8687 21.5152C11.8771 21.4872 11.8796 21.4578 11.876 21.4288C11.8723 21.3998 11.8626 21.3719 11.8474 21.3469C11.8322 21.3219 11.812 21.3004 11.7879 21.2838C11.7639 21.2671 11.7366 21.2557 11.7079 21.2504C11.3819 21.1799 11.0752 21.0393 10.809 20.8384C10.5428 20.6375 10.3235 20.381 10.1664 20.0868C9.97132 19.7644 9.79451 19.4312 9.63679 19.0889C9.60842 19.0226 9.5895 18.9517 9.48075 18.9943C9.37199 19.0368 9.45711 19.0936 9.45711 19.1551C9.60725 19.5047 9.69679 19.8774 9.7219 20.2571C9.7219 20.9713 9.47602 21.2598 8.77619 21.4159C8.12715 21.5319 7.49285 21.7191 6.88476 21.974C6.70084 22.0436 6.53302 22.1499 6.39156 22.2865C6.2501 22.4232 6.13796 22.5872 6.06199 22.7686C5.99009 22.9133 5.94872 23.0713 5.94047 23.2326C5.93223 23.394 5.95727 23.5554 6.01404 23.7066C6.07081 23.8579 6.1581 23.9959 6.27048 24.112C6.38285 24.2281 6.51791 24.3198 6.66725 24.3814C6.81959 24.4624 6.99402 24.4918 7.16447 24.4654C7.33493 24.439 7.49226 24.3581 7.61296 24.2348C7.68546 24.1465 7.73718 24.0431 7.76428 23.9321C7.79265 23.847 7.75955 23.7382 7.89668 23.7004C7.95667 23.6827 8.02015 23.6803 8.08129 23.6935C8.14242 23.7068 8.19926 23.7351 8.24659 23.776C8.32514 23.8429 8.37967 23.9336 8.40186 24.0344C8.42406 24.1352 8.41271 24.2404 8.36953 24.3341C8.28526 24.5676 8.13574 24.7719 7.93876 24.9228C7.74177 25.0737 7.5056 25.1649 7.25832 25.1855C6.91295 25.2381 6.55995 25.2053 6.23021 25.0899C5.90047 24.9744 5.60405 24.7799 5.36689 24.5233C5.24047 24.384 5.14616 24.2186 5.0906 24.0388C5.03505 23.859 5.0196 23.6692 5.04535 23.4828C5.09468 22.9558 5.34742 22.4689 5.7499 22.1254C5.97003 21.9384 6.23918 21.8185 6.52539 21.7801C7.12307 21.7247 7.71291 21.6042 8.28442 21.4206C8.53385 21.3288 8.75162 21.1672 8.91176 20.955C9.07189 20.7429 9.16764 20.4891 9.18758 20.224C9.30106 19.1504 8.70999 18.4267 7.88249 17.8591C7.16848 17.3436 6.42609 17.5044 5.69316 17.8166C5.54185 17.8875 5.3858 17.9868 5.2203 18.072C5.18731 18.0868 5.1599 18.1118 5.14204 18.1432C5.12419 18.1747 5.11682 18.211 5.121 18.247C5.14938 18.4078 5.14938 18.5639 5.14938 18.7199C5.1551 18.7604 5.1476 18.8015 5.128 18.8373C5.1084 18.8731 5.07775 18.9017 5.04062 18.9186L3.8632 19.7274C3.79676 19.5698 3.76773 19.399 3.7784 19.2283C3.78907 19.0576 3.83913 18.8917 3.92468 18.7436C4.10554 18.4179 4.36375 18.1418 4.67652 17.9395C5.22503 17.5564 5.783 17.1828 6.35989 16.8375C6.45472 16.7722 6.56298 16.7289 6.67672 16.7109C6.79046 16.6929 6.90679 16.7006 7.01716 16.7335C7.45219 16.8564 7.89668 16.9605 8.33643 17.0693C8.5965 17.1355 8.86131 17.197 9.12138 17.2537C9.21342 17.2726 9.30832 17.2726 9.40036 17.2537C9.4571 17.2395 9.49493 17.2206 9.49493 17.1497C9.49492 17.0037 9.53283 16.8603 9.60495 16.7334C9.67707 16.6066 9.78092 16.5006 9.90632 16.426C10.2635 16.1431 10.6734 15.9341 11.1121 15.8112C11.2209 15.7733 11.3296 15.8017 11.4715 15.7733C11.363 15.6682 11.2846 15.5359 11.2445 15.3902C11.204 15.2432 11.1996 15.0886 11.2317 14.9395C11.2638 14.7905 11.3315 14.6514 11.4289 14.5341C11.742 14.1349 12.1079 13.7801 12.5165 13.4794C13.2352 12.9166 14.0249 12.4531 14.7626 11.9139C15.1436 11.6721 15.4665 11.349 15.7083 10.9679C15.7857 10.8525 15.8271 10.7167 15.8271 10.5777C15.8271 10.4387 15.7857 10.3029 15.7083 10.1875C15.6318 10.0748 15.5252 9.98576 15.4007 9.93058C15.2761 9.8754 15.1386 9.85626 15.0037 9.87535C14.907 9.87802 14.8135 9.91028 14.7357 9.96779C14.6579 10.0253 14.5996 10.1053 14.5687 10.197C14.4488 10.5134 14.3709 10.8441 14.337 11.1808C14.3214 11.2506 14.2921 11.3167 14.2507 11.3751C14.2093 11.4335 14.1567 11.4831 14.096 11.521C14.0352 11.5588 13.9676 11.5842 13.8969 11.5956C13.8262 11.6071 13.754 11.6043 13.6844 11.5875C13.5302 11.542 13.3812 11.4802 13.24 11.4031C13.1796 11.3841 13.1247 11.3506 13.0803 11.3055C13.0358 11.2604 13.003 11.2052 12.9848 11.1445C12.9666 11.0839 12.9636 11.0197 12.9759 10.9576C12.9882 10.8954 13.0156 10.8373 13.0555 10.7882C13.2573 10.4315 13.5291 10.1194 13.8547 9.87062C13.9421 9.79156 14.0409 9.72618 14.1478 9.6767C14.1999 9.64832 14.2046 9.61049 14.1478 9.56319C14.1109 9.52705 14.0623 9.50525 14.0107 9.5017C13.6867 9.4954 13.3684 9.58777 13.0981 9.76657C12.9644 9.86719 12.8666 10.0081 12.8191 10.1686C12.7604 10.3213 12.6566 10.4525 12.5214 10.5446C12.3862 10.6367 12.2261 10.6854 12.0625 10.6841C11.8177 10.696 11.5724 10.6721 11.3343 10.6132C11.2398 10.599 11.2398 10.5564 11.2398 10.4618C11.2965 10.1449 11.3343 9.82805 11.3769 9.51589C11.381 9.41837 11.4184 9.3252 11.483 9.25201C11.5476 9.17882 11.6353 9.13005 11.7315 9.11387C12.0077 9.06375 12.2675 8.94684 12.4881 8.77332C12.7862 8.57097 13.0735 8.3531 13.3487 8.12062C13.4036 8.07826 13.4468 8.02256 13.4741 7.95882C13.5014 7.89508 13.5119 7.82541 13.5048 7.75643C13.4577 7.42633 13.5316 7.09034 13.7128 6.81049C13.867 6.61655 14.0911 6.49088 14.337 6.46049C14.6964 6.36589 15.0699 6.41792 15.434 6.36589C15.6369 6.35552 15.839 6.33341 16.0393 6.29968C16.4365 6.19562 16.4838 5.98278 16.4365 5.62332C16.4081 5.41049 16.3183 5.20238 16.3183 4.98008C16.3037 4.43905 16.4413 3.90481 16.7155 3.43819C16.8517 3.18915 17.0256 2.96262 17.2309 2.76657C17.4454 2.59376 17.7079 2.49136 17.9827 2.47332C18.6751 2.39211 19.3754 2.40803 20.0633 2.52062C20.7631 2.60576 21.4488 2.76184 22.1391 2.90846C22.2195 2.92738 22.2857 2.99359 22.3756 2.99359C22.2006 3.00305 22.0256 3.03143 21.8507 3.03143C21.6016 3.04763 21.3645 3.14385 21.1745 3.30576C21.1295 3.34981 21.0937 3.40241 21.0693 3.46048C21.0448 3.51856 21.0322 3.58093 21.0322 3.64393C21.0322 3.70694 21.0448 3.76931 21.0693 3.82738C21.0937 3.88545 21.1295 3.93806 21.1745 3.98211C21.4396 4.22701 21.754 4.41245 22.0966 4.52603L22.4749 4.67265C22.4512 4.70576 22.4087 4.70576 22.3756 4.70576C21.9505 4.70332 21.5257 4.72701 21.1036 4.7767C20.9266 4.79036 20.752 4.82529 20.5834 4.88076C20.5125 4.89417 20.4471 4.92811 20.3952 4.97837C20.3434 5.02863 20.3075 5.093 20.2919 5.16349C20.2763 5.23399 20.2817 5.30752 20.3074 5.37496C20.3332 5.44241 20.3782 5.50081 20.4368 5.54292C20.7291 5.8241 21.0841 6.03163 21.4724 6.14832L21.9784 6.26657C21.775 6.32805 21.5954 6.37062 21.4251 6.42738C20.8848 6.56574 20.3706 6.79097 19.9025 7.09427C19.8357 7.13393 19.7796 7.18946 19.7393 7.25595C19.6991 7.32244 19.6758 7.39784 19.6716 7.47547C19.6674 7.5531 19.6824 7.63057 19.7152 7.70103C19.7481 7.77148 19.7978 7.83275 19.86 7.87941C20.2188 8.17952 20.6311 8.409 21.0752 8.55576C21.6026 8.75572 22.1449 8.91386 22.6971 9.02873L23.3544 9.14224C23.2889 9.1642 23.22 9.17382 23.151 9.17062C22.5243 9.18311 21.9034 9.29486 21.3116 9.5017C21.1134 9.55234 20.9274 9.64254 20.7649 9.7669C20.6024 9.89126 20.4667 10.0472 20.3659 10.2254C20.3345 10.2669 20.313 10.3151 20.3032 10.3662C20.2933 10.4174 20.2953 10.4701 20.309 10.5204C20.3227 10.5706 20.3478 10.6171 20.3822 10.6561C20.4167 10.6952 20.4596 10.7258 20.5078 10.7456C20.8337 10.9367 21.1933 11.0636 21.567 11.1193C21.9831 11.2107 22.3992 11.2911 22.8153 11.3605C23.3355 11.4409 23.8509 11.5166 24.3757 11.5591C24.4499 11.5515 24.5246 11.5681 24.5885 11.6064L23.7941 11.6774L21.9784 11.8098C21.945 11.8098 21.9123 11.8191 21.8839 11.8366C21.8555 11.8542 21.8325 11.8793 21.8176 11.9091C21.7892 11.9801 21.846 12.0226 21.8932 12.0652L22.7302 12.7889H22.0115H21.4488C21.4083 12.7794 21.3663 12.7794 21.3258 12.7889C21.2643 12.8172 21.2029 12.8456 21.1982 12.9308C21.1934 13.0159 21.2738 13.0159 21.3164 13.0159C21.6179 13.1524 21.9357 13.2494 22.2621 13.3044C22.6356 13.3848 22.9666 13.4463 23.3875 13.5267C23.8083 13.6071 24.2244 13.6781 24.6406 13.7726H24.2481C23.4158 13.7774 22.5836 13.7821 21.7514 13.8389C21.356 13.8518 20.963 13.9057 20.5787 13.9997C20.4974 14.0186 20.4182 14.0455 20.3423 14.0801C20.1626 14.1841 20.0349 14.3449 20.2382 14.5862C20.4451 14.8092 20.708 14.9725 20.9995 15.0591C21.3258 15.179 21.6632 15.2661 22.0067 15.3193C22.0588 15.3293 22.1075 15.3521 22.1486 15.3855C21.827 15.4186 21.5008 15.4186 21.1792 15.4186C20.7271 15.4185 20.2754 15.447 19.8269 15.5037C19.4556 15.5292 19.0935 15.6306 18.7629 15.8017C18.7054 15.8245 18.655 15.8623 18.6171 15.9112C18.5792 15.96 18.5551 16.0182 18.5473 16.0796C18.5396 16.141 18.5485 16.2034 18.5731 16.2602C18.5978 16.3169 18.6372 16.3661 18.6873 16.4024C18.8767 16.5632 19.0996 16.6795 19.3398 16.7429C19.8694 16.9132 20.4084 17.0314 20.9475 17.1497L20.9475 17.1497C21.2502 17.2206 21.5575 17.2774 21.8601 17.3389C21.8838 17.3436 21.9263 17.3436 21.9263 17.3909C21.6805 17.4997 21.4298 17.5943 21.1745 17.6841C20.812 17.7923 20.4422 17.8745 20.068 17.9301C20.011 17.9306 19.9555 17.9485 19.909 17.9815C19.8626 18.0145 19.8273 18.0609 19.8079 18.1145C19.7916 18.1748 19.7937 18.2385 19.8139 18.2975C19.8342 18.3565 19.8716 18.4081 19.9214 18.4456C20.1368 18.6288 20.3905 18.7613 20.6638 18.8335C21.1194 18.9903 21.6062 19.0341 22.0824 18.9612C22.4171 18.8965 22.746 18.8047 23.0659 18.6868C23.6286 18.5071 24.1819 18.3037 24.7493 18.1476C25.1985 18.0199 25.643 17.9017 26.1159 17.8166C26.6935 17.7048 27.2826 17.6635 27.8702 17.6936C28.4565 17.724 29.0285 17.8857 29.5441 18.1666C29.9288 18.4074 30.2884 18.6863 30.6175 18.999C31.2383 19.5592 31.8168 20.1647 32.3481 20.8105C32.57 21.1163 32.8662 21.3605 33.2087 21.5199C33.3488 21.5939 33.5028 21.6376 33.6609 21.6482C33.8189 21.6588 33.9774 21.6361 34.1261 21.5814C34.2561 21.5075 34.3668 21.4038 34.449 21.2789C34.5312 21.1539 34.5826 21.0112 34.5989 20.8625C34.6937 20.2816 34.6793 19.6881 34.5564 19.1125C34.4797 18.6319 34.3674 18.1576 34.2206 17.6936C34.0521 17.1882 33.9364 16.6668 33.8755 16.1375C33.7383 14.6902 34.0882 13.4321 35.3508 12.5618C35.8732 12.2102 36.4571 11.9599 37.072 11.824C37.8833 11.6428 38.7193 11.5996 39.545 11.6963Z" fill="#C9B44A"/>
</svg>
