<svg width="13" height="14" viewBox="0 0 13 14" fill="none" xmlns="http://www.w3.org/2000/svg">
<g clip-path="url(#clip0)">
<path d="M3.30241 0.70779L2.87361 1.13362C2.7397 1.26764 2.66593 1.44594 2.66593 1.63651C2.66593 1.82696 2.7397 2.00548 2.87361 2.13949L7.73143 6.99709L2.86822 11.8603C2.73431 11.9941 2.66064 12.1726 2.66064 12.3631C2.66064 12.5535 2.73431 12.7321 2.86822 12.8661L3.29437 13.292C3.5715 13.5693 4.02291 13.5693 4.30003 13.292L10.1111 7.50177C10.2449 7.36797 10.3392 7.18966 10.3392 6.99752V6.9953C10.3392 6.80473 10.2448 6.62643 10.1111 6.49263L4.31578 0.70779C4.18197 0.573773 3.99828 0.500211 3.80782 0.5C3.61726 0.5 3.43611 0.573773 3.30241 0.70779Z" fill="#ADADAD"/>
</g>
<defs>
<clipPath id="clip0">
<rect width="13" height="13" fill="white" transform="translate(0 13.5) rotate(-90)"/>
</clipPath>
</defs>
</svg>
