<svg width="151" height="129" viewBox="0 0 151 129" fill="none" xmlns="http://www.w3.org/2000/svg">
<path d="M148.016 59.9686L125.01 13.6186C124.403 12.4966 123.24 11.7863 121.965 11.7578L120.443 12.0961H90.6705C88.4695 3.59458 79.7934 -1.51309 71.2918 0.687658C65.6988 2.13561 61.3313 6.50311 59.8834 12.0961H30.1113L28.5888 11.7578C27.3135 11.7863 26.1511 12.4966 25.544 13.6186L2.53829 59.9686C1.03108 60.2927 -0.0335145 61.6413 0.000806439 63.1828C0.000806439 77.3923 12.8569 89.0644 28.5888 89.0644C44.3208 89.0644 57.3459 77.3923 57.3459 63.1828C57.318 61.663 56.2803 60.3484 54.8084 59.9686L34.3405 18.8625H59.7144C60.9936 24.9817 65.7746 29.7627 71.8937 31.0419V90.4171C60.8984 91.7705 52.2712 100.059 50.9178 108.517H43.4747C41.4893 108.677 39.9128 110.253 39.7532 112.239V125.772C39.9296 127.632 41.5809 128.996 43.4411 128.82C43.4524 128.819 43.4634 128.817 43.4747 128.816H107.079C108.937 129.012 110.602 127.663 110.797 125.805C110.798 125.794 110.799 125.783 110.8 125.772V112.239C110.64 110.253 109.064 108.677 107.079 108.517H99.6354C98.282 100.059 89.6548 91.7705 78.6595 90.4171V31.0422C84.7787 29.763 89.5596 24.982 90.8389 18.8629H116.213L95.7445 59.9686C94.2729 60.3484 93.2349 61.663 93.207 63.1828C93.207 77.3923 106.063 89.0644 121.964 89.0644C137.865 89.0644 150.552 77.3923 150.552 63.1828C150.588 61.6413 149.523 60.2927 148.016 59.9686ZM28.5888 81.9593C17.9319 81.9593 8.96634 74.6855 7.10556 66.2273H50.2415C48.3807 74.6855 39.4151 81.9593 28.5888 81.9593ZM47.1966 59.4609H10.1504L28.5888 22.4151L47.1966 59.4609ZM104.034 115.284V122.05H46.5199V115.284H104.034ZM92.7006 108.517H57.8536C59.207 101.751 66.4808 96.6762 75.2769 96.6762C84.0731 96.6762 91.3472 101.751 92.7006 108.517ZM75.2769 24.7832C70.2321 24.7832 66.1424 20.6935 66.1424 15.6487C66.1424 10.6038 70.2321 6.51412 75.2769 6.51412C80.3218 6.51412 84.4115 10.6038 84.4115 15.6487C84.4118 20.6935 80.3218 24.7832 75.2769 24.7832ZM121.965 22.4151L140.403 59.4609H103.358L121.965 22.4151ZM121.965 81.9593C111.139 81.9593 102.173 74.6855 100.313 66.2273H143.448C141.588 74.6855 132.622 81.9593 121.965 81.9593Z" fill="white"/>
</svg>
