<svg width="103" height="135" viewBox="0 0 103 135" fill="none" xmlns="http://www.w3.org/2000/svg">
<path d="M1.04493 80.2119L1.14153 78.9072C2.69377 59.0234 12.1031 46.5585 20.4039 35.564C28.0903 25.3832 34.7288 16.5916 34.7288 3.61944C34.7288 2.57778 35.3216 1.62569 36.2617 1.14809C37.2047 0.667882 38.3377 0.746528 39.195 1.35981C51.6616 10.1379 62.0634 24.933 65.697 39.0497C68.2195 48.8778 68.5532 59.9265 68.6001 67.2236C80.1129 64.8038 82.7209 47.8577 82.7484 47.6734C82.8781 46.7944 83.4238 46.0293 84.2178 45.6116C85.02 45.1994 85.963 45.1694 86.7763 45.5655C87.38 45.853 101.595 52.9603 102.422 81.3403C102.48 82.2843 102.482 83.2283 102.482 84.1749C102.482 111.744 79.6857 134.175 51.6672 134.175C23.6487 134.175 0.85199 111.744 0.85199 84.1749C0.851982 82.7916 0.948326 81.5004 1.04493 80.2119ZM51.6672 128.619C61.0077 128.619 68.6056 120.655 68.6056 110.865C68.6056 110.531 68.6083 110.195 68.5836 109.783C68.4706 105.654 67.6737 102.836 66.7998 100.961C65.1621 104.423 62.2317 107.604 57.4787 107.604C55.9182 107.604 54.6555 106.362 54.6555 104.826C54.6555 100.871 54.5727 96.3088 53.572 92.1908C52.6814 88.5369 50.5532 84.6549 47.8569 81.5408C46.6577 85.5827 44.3196 88.8541 42.0369 92.0471C38.7699 96.6153 35.3928 101.338 34.8 109.392C34.7643 109.869 34.7283 110.349 34.7283 110.865C34.7288 120.655 42.3267 128.619 51.6672 128.619ZM33.8258 124.99C30.8954 121.058 29.0825 116.198 29.0825 110.865C29.0825 110.211 29.1238 109.604 29.2066 108.467C29.8765 99.3986 33.8824 93.7942 37.4194 88.8491C40.4325 84.639 43.0323 81.0015 43.0323 75.8418C43.0323 74.7866 43.6389 73.8236 44.5983 73.3543C45.5522 72.8822 46.7045 72.9882 47.5565 73.6257C52.9709 77.6512 57.4869 84.4275 59.0637 90.8973C59.8688 94.215 60.1499 97.8038 60.2492 100.755C62.2066 98.6827 62.8132 94.8416 62.8185 94.79C62.9453 93.8976 63.5021 93.1189 64.3154 92.7041C65.1232 92.2918 66.0908 92.2809 66.9041 92.6931C67.6155 93.0512 73.8653 96.5778 74.2236 109.55C74.2485 109.989 74.2511 110.429 74.2511 110.865C74.2511 116.198 72.4382 121.058 69.5078 124.99C85.5633 118.169 96.8356 102.448 96.8356 84.1754C96.8356 83.3426 96.8382 82.5127 96.7805 81.5874C96.2954 64.9369 90.8807 56.6796 87.3464 53.0366C84.8818 61.7171 78.4251 73.0642 65.7819 73.0642C64.2215 73.0642 62.9588 71.8218 62.9588 70.2864C62.9588 60.99 62.7465 50.2478 60.2211 40.4116C57.354 29.2679 49.4996 17.2345 40.0186 9.08846C38.4444 20.9864 31.8583 29.7103 24.9355 38.8762C16.7061 49.7757 8.19823 61.0468 6.77302 79.2978L6.67641 80.627C6.58828 81.7827 6.49725 82.9356 6.49725 84.1752C6.49804 102.448 17.7703 118.168 33.8258 124.99Z" fill="white"/>
</svg>
