<svg width="120" height="121" viewBox="0 0 120 121" fill="none" xmlns="http://www.w3.org/2000/svg">
<path d="M120 0.799805H20C8.59961 0.799805 0 5.09766 0 10.7998V110.8C0 116.502 8.59961 120.8 20 120.8C31.4004 120.8 40 116.502 40 110.8V104.8H120V0.799805ZM20 4.7998C29.7656 4.7998 36 8.35156 36 10.7998C36 13.248 29.7656 16.7998 20 16.7998C10.2344 16.7998 4 13.248 4 10.7998C4 8.35156 10.2344 4.7998 20 4.7998ZM36 110.8C36 113.248 29.7656 116.8 20 116.8C10.2344 116.8 4 113.248 4 110.8V16.9482C4.04004 16.9756 4.08789 16.9902 4.12988 17.0156C8.9707 19.7139 14.4629 21.0225 20 20.7998C25.5371 21.0225 31.0293 19.7139 35.8701 17.0156C35.9121 16.9902 35.96 16.9756 36 16.9482V110.8ZM116 100.8H40V10.7998C39.8193 8.28906 38.3926 6.03613 36.2002 4.7998H116V100.8Z" fill="white"/>
</svg>
